<svg width="1045" height="1023" viewBox="0 0 1045 1023" fill="none" xmlns="http://www.w3.org/2000/svg">
<path d="M317.277 4.24481C320.619 2.7954 323.979 1.38032 327.357 0H717.643C721.021 1.38032 724.381 2.7954 727.723 4.24481H317.277Z" fill="#2C2727"/>
<path d="M238.741 46.6929C240.919 45.262 243.107 43.847 245.306 42.4481H799.694C801.893 43.847 804.081 45.262 806.259 46.6929H238.741Z" fill="#2C2727"/>
<path d="M182.73 89.1411C184.37 87.716 186.019 86.301 187.677 84.8963H857.323C858.981 86.301 860.63 87.716 862.27 89.1411H182.73Z" fill="#2C2727"/>
<path d="M139.201 131.589C140.501 130.167 141.809 128.752 143.124 127.344H901.876C903.191 128.752 904.499 130.167 905.799 131.589H139.201Z" fill="#2C2727"/>
<path d="M104.252 174.037C105.303 172.617 106.361 171.202 107.426 169.793H937.574C938.639 171.202 939.697 172.617 940.748 174.037H104.252Z" fill="#2C2727"/>
<path d="M75.8853 216.485C76.7383 215.066 77.5976 213.651 78.4633 212.241H966.537C967.402 213.651 968.262 215.066 969.115 216.485H75.8853Z" fill="#2C2727"/>
<path d="M52.9294 258.934C53.6153 257.515 54.3072 256.1 55.0052 254.689H989.995C990.693 256.1 991.385 257.515 992.071 258.934H52.9294Z" fill="#2C2727"/>
<path d="M34.6366 301.382C35.1758 299.964 35.7209 298.549 36.2717 297.137H1008.73C1009.28 298.549 1009.82 299.964 1010.36 301.382H34.6366Z" fill="#2C2727"/>
<path d="M20.5064 343.83C20.9129 342.412 21.325 340.998 21.7428 339.585H1023.26C1023.67 340.998 1024.09 342.412 1024.49 343.83H20.5064Z" fill="#2C2727"/>
<path d="M10.1946 386.278C10.4779 384.861 10.7669 383.446 11.0614 382.033H1033.94C1034.23 383.446 1034.52 384.861 1034.81 386.278H10.1946Z" fill="#2C2727"/>
<path d="M3.46262 428.726C3.62954 427.309 3.80196 425.895 3.97985 424.481H1041.02C1041.2 425.895 1041.37 427.309 1041.54 428.726H3.46262Z" fill="#2C2727"/>
<path d="M0.147985 471.174C0.202879 469.758 0.263242 468.343 0.329055 466.929H1044.67C1044.74 468.343 1044.8 469.758 1044.85 471.174H0.147985Z" fill="#2C2727"/>
<path d="M0.147985 513.622C0.0932019 512.209 0.0438666 510.794 0 509.378H1045C1044.96 510.794 1044.91 512.209 1044.85 513.622H0.147985Z" fill="#2C2727"/>
<path d="M3.46262 556.071C3.29611 554.657 3.13507 553.242 2.97952 551.826H1042.02C1041.86 553.242 1041.7 554.657 1041.54 556.071H3.46262Z" fill="#2C2727"/>
<path d="M10.1946 598.519C9.912 597.106 9.63496 595.691 9.36348 594.274H1035.64C1035.37 595.691 1035.09 597.106 1034.81 598.519H10.1946Z" fill="#2C2727"/>
<path d="M20.5064 640.967C20.1013 639.554 19.7018 638.139 19.308 636.722H1025.69C1025.3 638.139 1024.9 639.554 1024.49 640.967H20.5064Z" fill="#2C2727"/>
<path d="M34.6366 683.415C34.0996 682.003 33.5683 680.588 33.0429 679.17H1011.96C1011.43 680.588 1010.9 682.003 1010.36 683.415H34.6366Z" fill="#2C2727"/>
<path d="M52.9294 725.863C52.2469 724.452 51.5705 723.037 50.9001 721.618H994.1C993.43 723.037 992.753 724.452 992.071 725.863H52.9294Z" fill="#2C2727"/>
<path d="M75.8853 768.311C75.0376 766.901 74.1962 765.486 73.3611 764.066H971.639C970.804 765.486 969.962 766.901 969.115 768.311H75.8853Z" fill="#2C2727"/>
<path d="M104.252 810.759C103.209 809.35 102.172 807.935 101.143 806.515H943.857C942.828 807.935 941.791 809.35 940.748 810.759H104.252Z" fill="#2C2727"/>
<path d="M139.201 853.208C137.914 851.8 136.634 850.385 135.362 848.963H909.638C908.366 850.385 907.086 851.8 905.799 853.208H139.201Z" fill="#2C2727"/>
<path d="M182.73 895.656C181.112 894.251 179.504 892.836 177.904 891.411H867.096C865.496 892.836 863.888 894.251 862.27 895.656H182.73Z" fill="#2C2727"/>
<path d="M238.741 938.104C236.612 936.704 234.493 935.289 232.385 933.859H812.616C810.507 935.289 808.388 936.704 806.259 938.104H238.741Z" fill="#2C2727"/>
<path d="M317.277 980.552C314.086 979.168 310.912 977.753 307.754 976.307H737.246C734.088 977.753 730.914 979.168 727.723 980.552H317.277Z" fill="#2C2727"/>
<path d="M588.94 1018.76C567.182 1021.56 545.007 1023 522.5 1023C499.993 1023 477.818 1021.56 456.06 1018.76H588.94Z" fill="#2C2727"/>
</svg>
