<svg width="40" height="32" viewBox="0 0 40 32" fill="none" xmlns="http://www.w3.org/2000/svg">
<path d="M16.6653 15.9794L17.3754 15.2403C17.4227 15.193 17.4603 15.1363 17.486 15.0735C17.5117 15.0107 17.525 14.9431 17.525 14.8748C17.525 14.8066 17.5117 14.739 17.486 14.6762C17.4603 14.6134 17.4227 14.5567 17.3754 14.5094L14.4395 11.4697L17.3754 8.41331C17.4229 8.3653 17.4606 8.30784 17.4864 8.24435C17.5122 8.18086 17.5255 8.11265 17.5255 8.04371C17.5255 7.97478 17.5122 7.90656 17.4864 7.84307C17.4606 7.77959 17.4229 7.72212 17.3754 7.67412L16.6653 6.93493C16.5715 6.83956 16.4455 6.7862 16.3143 6.7862C16.1832 6.7862 16.0572 6.83956 15.9633 6.93493L11.9745 11.0876C11.8829 11.1853 11.8316 11.3165 11.8316 11.453C11.8316 11.5896 11.8829 11.7207 11.9745 11.8185L15.9633 15.9711C16.0561 16.0676 16.1815 16.1225 16.3127 16.1241C16.4438 16.1256 16.5704 16.0737 16.6653 15.9794ZM22.6725 15.2403L23.3745 15.9794C23.4698 16.0754 23.5971 16.129 23.7295 16.129C23.862 16.129 23.9893 16.0754 24.0846 15.9794L28.0734 11.8268C28.1207 11.7795 28.1583 11.7228 28.184 11.66C28.2097 11.5972 28.223 11.5296 28.223 11.4613C28.223 11.3931 28.2097 11.3255 28.184 11.2627C28.1583 11.1999 28.1207 11.1432 28.0734 11.0959L24.0846 6.94324C23.9893 6.84734 23.862 6.79375 23.7295 6.79375C23.5971 6.79375 23.4698 6.84734 23.3745 6.94324L22.6725 7.68243C22.6252 7.72971 22.5876 7.78646 22.5619 7.84926C22.5362 7.91206 22.5229 7.97961 22.5229 8.04787C22.5229 8.11613 22.5362 8.18368 22.5619 8.24648C22.5876 8.30928 22.6252 8.36603 22.6725 8.41331L25.6083 11.478L22.6725 14.5426C22.6252 14.5899 22.5876 14.6467 22.5619 14.7095C22.5362 14.7723 22.5229 14.8398 22.5229 14.9081C22.5229 14.9763 22.5362 15.0439 22.5619 15.1067C22.5876 15.1695 22.6252 15.2262 22.6725 15.2735V15.2403ZM39.0267 21.8845H36.0271V4.15267C36.0271 3.05131 35.6069 1.99507 34.8588 1.2163C34.1108 0.437521 33.0962 0 32.0383 0H8.02553C6.96762 0 5.95306 0.437521 5.205 1.2163C4.45695 1.99507 4.03669 3.05131 4.03669 4.15267V21.8596H0.997208C0.732732 21.8596 0.479066 21.969 0.292053 22.1637C0.105041 22.3584 0 22.6225 0 22.8978V26.0206C-1.68549e-06 27.4003 0.525883 28.7235 1.46221 29.6999C2.39855 30.6762 3.66879 31.2258 4.99402 31.228H34.998C36.3246 31.228 37.5969 30.6794 38.535 29.7028C39.473 28.7262 40 27.4017 40 26.0206V22.8978C40.0001 22.6267 39.8983 22.3663 39.7164 22.1724C39.5346 21.9784 39.287 21.8661 39.0267 21.8596V21.8845ZM6.02312 4.15267C6.02312 3.8793 6.075 3.6086 6.17572 3.35615C6.27645 3.10369 6.42406 2.87446 6.6101 2.68154C6.79615 2.48863 7.01695 2.33586 7.25985 2.23201C7.50274 2.12815 7.76294 2.07524 8.02553 2.07633H32.0223C32.2849 2.07524 32.5451 2.12815 32.788 2.23201C33.0309 2.33586 33.2517 2.48863 33.4378 2.68154C33.6238 2.87446 33.7714 3.10369 33.8721 3.35615C33.9729 3.6086 34.0247 3.8793 34.0247 4.15267V21.8596H24.4515C24.3309 21.864 24.2155 21.9119 24.1252 21.9953C24.0349 22.0787 23.9754 22.1923 23.9569 22.3164C23.8653 22.784 23.6216 23.2044 23.2671 23.507C22.9126 23.8095 22.4688 23.9757 22.0104 23.9775H18.0216C17.5632 23.9757 17.1193 23.8095 16.7648 23.507C16.4102 23.2044 16.1667 22.784 16.075 22.3164C16.0551 22.1929 15.9951 22.0802 15.9051 21.9971C15.8151 21.914 15.7006 21.8655 15.5804 21.8596H6.0072L6.02312 4.15267ZM38.0295 26.0206C38.0295 26.4314 37.9516 26.8381 37.8004 27.2176C37.6492 27.597 37.4275 27.9416 37.1481 28.2317C36.8687 28.5218 36.5371 28.7516 36.1723 28.9081C35.8074 29.0645 35.4165 29.1445 35.0219 29.1434H4.98604C4.19049 29.1434 3.42756 28.8144 2.86502 28.2287C2.30249 27.6431 1.98643 26.8488 1.98643 26.0206V23.9277H14.1603C14.3679 24.537 14.7516 25.0646 15.2586 25.4378C15.7657 25.8111 16.3714 26.0118 16.9924 26.0123H22.9916C23.6127 26.0118 24.2183 25.8111 24.7254 25.4378C25.2325 25.0646 25.6161 24.537 25.8237 23.9277H37.9976L38.0295 26.0206Z" fill="#F7941E"/>
</svg>
