<svg width="40" height="34" viewBox="0 0 40 34" fill="none" xmlns="http://www.w3.org/2000/svg">
<path d="M32.1006 13.2329L30.8977 11.5632L27.8986 13.9091L29.1014 15.5788L32.1006 13.2329ZM35.9978 12.5317C36.7948 12.5318 37.5737 12.2848 38.2352 11.822C38.661 11.5206 39.0283 11.1383 39.3178 10.695C39.7625 10.0064 40 9.19554 40 8.3658C40 7.53606 39.7625 6.72513 39.3178 6.03658C39.0298 5.592 38.6622 5.20934 38.2352 4.90954C37.5738 4.44654 36.7948 4.19926 35.9978 4.19926C35.2008 4.19926 34.4219 4.44654 33.7605 4.90954C33.3347 5.21092 32.9674 5.59331 32.6779 6.03658C32.2298 6.72342 31.9922 7.53552 31.9963 8.3658C32.0069 9.46417 32.4328 10.5139 33.1819 11.2875C33.931 12.0611 34.9427 12.4961 35.9978 12.4983V12.5317ZM35.9978 6.27869C36.3947 6.27704 36.7831 6.39803 37.1138 6.62636C37.4446 6.85468 37.7028 7.18005 37.8557 7.56127C38.0087 7.94249 38.0495 8.36242 37.9731 8.76783C37.8967 9.17324 37.7063 9.5459 37.4263 9.83862C37.1462 10.1313 36.789 10.331 36.3999 10.4122C36.0108 10.4934 35.6073 10.4525 35.2405 10.2948C34.8737 10.1371 34.5602 9.86959 34.3395 9.52619C34.1189 9.18279 34.0011 8.77894 34.0011 8.3658C33.9979 8.08992 34.0471 7.81609 34.1458 7.56005C34.2445 7.30401 34.3909 7.07079 34.5764 6.87377C34.7619 6.67675 34.983 6.51982 35.2269 6.41196C35.4708 6.30411 35.7328 6.24747 35.9978 6.24529V6.27869ZM6.23894 16.3636C5.57672 15.8988 4.79627 15.6505 3.99762 15.6505C3.19896 15.6505 2.41846 15.8988 1.75624 16.3636C1.33284 16.6652 0.968237 17.0476 0.681707 17.4906C0.23359 18.1775 -0.00409255 18.9896 5.33272e-05 19.8198C5.33272e-05 20.9269 0.422496 21.9886 1.17443 22.7714C1.92637 23.5543 2.94621 23.994 4.00961 23.994C5.07301 23.994 6.09289 23.5543 6.84483 22.7714C7.59677 21.9886 8.01916 20.9269 8.01916 19.8198C8.01973 19.1382 7.85998 18.4669 7.55384 17.8644C7.24771 17.2619 6.8045 16.7466 6.26297 16.3636H6.23894ZM4.00163 21.8986C3.60444 21.9002 3.21572 21.779 2.88481 21.5503C2.5539 21.3216 2.29568 20.9957 2.14295 20.614C1.99022 20.2323 1.94985 19.812 2.02695 19.4064C2.10405 19.0007 2.29516 18.6281 2.57602 18.3357C2.85687 18.0433 3.21481 17.8444 3.60444 17.7641C3.99408 17.6838 4.39783 17.7259 4.76448 17.8849C5.13113 18.0439 5.44416 18.3127 5.66384 18.6571C5.88352 19.0016 5.99996 19.4063 5.99838 19.8198C5.98791 20.3647 5.77319 20.8836 5.40008 21.2658C5.02697 21.648 4.52506 21.8631 4.00163 21.8652V21.8986ZM9.4947 20.855H12.5019V18.7429H9.4947V20.855ZM38.8286 26.2397C38.6493 26.0478 38.4504 25.8771 38.2352 25.7305C37.5738 25.2675 36.7948 25.0202 35.9978 25.0202C35.2008 25.0202 34.4219 25.2675 33.7605 25.7305C33.5548 25.8737 33.364 26.0388 33.1912 26.2231L27.4575 22.6332C27.8122 21.7412 27.9948 20.7853 27.9948 19.8198C27.9958 18.8631 27.8158 17.9156 27.4648 17.0314C27.1139 16.1472 26.599 15.3437 25.9495 14.6668C25.3001 13.9899 24.5289 13.453 23.68 13.0866C22.8311 12.7202 21.9211 12.5317 21.0021 12.5317C20.3194 12.5433 19.6417 12.6557 18.9893 12.8656L16.5275 7.38902C17.0094 6.97737 17.3925 6.4544 17.6463 5.86165C17.9001 5.26891 18.0177 4.62271 17.9896 3.97439C17.9616 3.32607 17.7888 2.69347 17.4848 2.12685C17.1809 1.56023 16.7542 1.07521 16.2387 0.710283C15.5774 0.247288 14.7984 0 14.0014 0C13.2044 0 12.4255 0.247288 11.7641 0.710283C11.3383 1.01167 10.971 1.39405 10.6815 1.83733C10.2334 2.52416 9.99576 3.33626 9.99991 4.16654C9.99991 5.27361 10.4223 6.33533 11.1743 7.11815C11.9262 7.90096 12.9461 8.34075 14.0095 8.34075C14.2548 8.3382 14.4992 8.31023 14.7392 8.25726L17.1449 13.7004C16.2984 14.2729 15.5811 15.0295 15.0425 15.9183C14.5038 16.807 14.1566 17.8068 14.0248 18.8487C13.8929 19.8906 13.9796 20.9498 14.2788 21.9535C14.5779 22.9572 15.0825 23.8814 15.7578 24.6625C16.433 25.4437 17.2629 26.0632 18.1902 26.4784C19.1175 26.8935 20.1202 27.0945 21.1293 27.0675C22.1384 27.0404 23.1299 26.786 24.0354 26.3217C24.941 25.8574 25.7392 25.1943 26.3749 24.3781L32.1487 27.9846C32.0395 28.3667 31.9828 28.763 31.9803 29.1617C31.9803 30.2688 32.4027 31.3305 33.1546 32.1133C33.9066 32.8961 34.9264 33.3359 35.9898 33.3359C36.7872 33.3392 37.567 33.0919 38.2272 32.6263C38.653 32.3249 39.0202 31.9425 39.3097 31.4993C39.7514 30.8097 39.9859 29.9989 39.9834 29.1701C39.9875 28.3398 39.7498 27.5277 39.3017 26.8408C39.1623 26.6152 39.004 26.4029 38.8286 26.2064V26.2397ZM13.9694 6.27869C13.5745 6.27869 13.1884 6.15677 12.86 5.92835C12.5317 5.69994 12.2757 5.37527 12.1246 4.99542C11.9735 4.61558 11.9339 4.19761 12.0109 3.79437C12.088 3.39113 12.2782 3.02075 12.5574 2.73003C12.8367 2.43931 13.1925 2.24133 13.5798 2.16112C13.9672 2.08091 14.3686 2.12207 14.7335 2.27941C15.0984 2.43674 15.4102 2.70318 15.6296 3.04503C15.849 3.38688 15.9661 3.78878 15.9661 4.19992C15.9559 4.73904 15.7456 5.25311 15.3793 5.6344C15.0131 6.01568 14.5193 6.23461 14.0014 6.24529L13.9694 6.27869ZM20.97 25.0209C19.9797 25.0225 19.0111 24.7182 18.187 24.1464C17.3629 23.5746 16.7203 22.7611 16.3406 21.8089C15.9608 20.8566 15.8611 19.8085 16.0539 18.7972C16.2467 17.7859 16.7234 16.8569 17.4237 16.1279C18.124 15.3988 19.0164 14.9025 19.9878 14.7018C20.9592 14.501 21.966 14.6049 22.8806 15.0002C23.7953 15.3955 24.5768 16.0645 25.126 16.9225C25.6752 17.7805 25.9675 18.7888 25.9659 19.8198C25.9534 21.1863 25.4264 22.4932 24.4982 23.4595C23.57 24.4258 22.3147 24.9744 21.0021 24.9875L20.97 25.0209ZM35.9658 31.2655C35.5712 31.2639 35.186 31.1405 34.8587 30.9111C34.5313 30.6817 34.2766 30.3565 34.1267 29.9765C33.9768 29.5965 33.9384 29.1788 34.0164 28.7761C34.0943 28.3734 34.2851 28.0038 34.5647 27.7139C34.8443 27.424 35.2001 27.2269 35.5872 27.1474C35.9743 27.0678 36.3754 27.1095 36.7397 27.267C37.1041 27.4246 37.4155 27.691 37.6346 28.0327C37.8537 28.3744 37.9706 28.776 37.9706 29.1867C37.9602 29.7273 37.7488 30.2426 37.3809 30.6241C37.0129 31.0056 36.5171 31.2236 35.9978 31.2321L35.9658 31.2655Z" fill="#F7941E"/>
</svg>
