<svg width="40" height="30" viewBox="0 0 40 30" fill="none" xmlns="http://www.w3.org/2000/svg">
<path d="M19.9955 7.62129C16.6868 7.62129 14.0023 10.8546 14.0023 14.8434C14.0023 18.8321 16.6778 22.0748 19.9955 22.0748C23.3132 22.0748 25.9977 18.8414 25.9977 14.8434C25.9977 10.8454 23.3132 7.62129 19.9955 7.62129ZM19.9955 20.0113C17.7927 20.0113 16.0001 17.6991 16.0001 14.8434C16.0001 11.9877 17.7837 9.68475 19.9955 9.68475C22.2073 9.68475 23.9999 11.9969 23.9999 14.8434C23.9999 17.6899 22.2073 20.0113 19.9955 20.0113ZM38.8225 1.83619C36.5159 0.852437 34.0404 0.360488 31.545 0.389919C23.8483 0.389919 16.1517 4.41551 8.45501 4.41551C4.39708 4.41551 2.93436 3.42067 2.01575 3.42067C1.75265 3.41824 1.49175 3.46949 1.2479 3.57152C1.00404 3.67356 0.782076 3.82437 0.594793 4.01525C0.407509 4.20613 0.258522 4.43333 0.156487 4.68382C0.0544519 4.93431 0.00131543 5.20315 0.000151356 5.47491V25.9161C-0.00463614 26.3178 0.104244 26.7122 0.313367 27.051C0.522489 27.3897 0.822819 27.658 1.17746 27.823C3.48414 28.8067 5.95959 29.2987 8.45501 29.2693C16.1517 29.2693 23.8483 25.2437 31.545 25.2437C35.6029 25.2437 37.0656 26.2385 37.9843 26.2385C38.2473 26.2409 38.5082 26.1897 38.7521 26.0877C38.996 25.9856 39.2179 25.8348 39.4052 25.6439C39.5925 25.4531 39.7415 25.2259 39.8435 24.9754C39.9455 24.7249 39.9987 24.456 39.9998 24.1843V3.74306C40.0046 3.34136 39.8958 2.94695 39.6866 2.60822C39.4775 2.26949 39.1772 2.00116 38.8225 1.83619ZM2.06038 5.52095C3.33592 5.93141 4.64724 6.2122 5.97563 6.35927C5.91941 7.40078 5.48336 8.38163 4.75532 9.10457C4.02728 9.8275 3.06124 10.2389 2.05146 10.2559L2.06038 5.52095ZM1.99789 25.9714V23.2078C3.00438 23.2123 3.97207 23.6098 4.70655 24.3206C5.44103 25.0314 5.88799 26.0028 5.95778 27.0399C4.59519 26.8496 3.26335 26.4716 1.99789 25.9161V25.9714ZM37.9396 24.2119C36.6672 23.8013 35.3588 23.5205 34.0333 23.3736C34.119 22.3558 34.5665 21.4067 35.2894 20.7093C36.0123 20.012 36.9596 19.6157 37.9485 19.5968V24.2027L37.9396 24.2119ZM37.9396 17.5241C36.441 17.5446 35.0038 18.1426 33.9099 19.2009C32.8161 20.2592 32.1444 21.7013 32.0266 23.2446C27.5674 23.1525 23.4559 24.2672 19.5407 25.2989C14.8495 26.5241 11.63 27.3163 8.00908 27.2334C7.97886 25.6164 7.33799 24.0755 6.22331 22.9397C5.10863 21.8038 3.60834 21.1629 2.04253 21.1536V12.3286C3.56331 12.3146 5.02188 11.703 6.12184 10.6182C7.2218 9.53339 7.88065 8.05668 7.96445 6.48819C12.3702 6.58031 16.5262 5.46569 20.4504 4.43396C25.1237 3.20877 28.3522 2.41657 31.9642 2.49948C31.9666 4.14064 32.5969 5.71432 33.7179 6.87738C34.8389 8.04045 36.3597 8.69857 37.9485 8.70829V17.5241H37.9396ZM37.9396 6.62639C36.9118 6.62014 35.9259 6.20502 35.1868 5.46732C34.4476 4.72961 34.0122 3.72606 33.9709 2.66529C35.3377 2.84821 36.6752 3.2168 37.9485 3.76151L37.9396 6.62639Z" fill="#F7941E"/>
</svg>
