<svg width="40" height="27" viewBox="0 0 40 27" fill="none" xmlns="http://www.w3.org/2000/svg">
<path d="M20 15.5934C21.1023 15.4828 22.1241 14.9666 22.8673 14.1451C23.6105 13.3236 24.022 12.2553 24.022 11.1475C24.022 10.0397 23.6105 8.97139 22.8673 8.14987C22.1241 7.32835 21.1023 6.8122 20 6.70156C19.933 6.70156 19.8734 6.70156 19.8064 6.70156C20.1019 7.52437 20.0603 8.43062 19.6907 9.22292C19.321 10.0152 18.6533 10.6293 17.8329 10.9315C17.1101 11.1871 16.3215 11.1871 15.5987 10.9315C15.5987 10.9985 15.5987 11.0581 15.5987 11.1252C15.5986 12.2987 16.0602 13.4252 16.8837 14.2612C17.7072 15.0973 18.8266 15.5758 20 15.5934V15.5934ZM39.7573 12.3241C37.9469 8.62714 35.1356 5.51226 31.643 3.33362C28.1503 1.15498 24.1164 0 20 0C15.8836 0 11.8497 1.15498 8.35706 3.33362C4.86441 5.51226 2.05309 8.62714 0.242757 12.3241C0.0831773 12.6379 0 12.9849 0 13.3369C0 13.6889 0.0831773 14.036 0.242757 14.3498C2.05512 18.0444 4.86717 21.1569 8.35956 23.3337C11.852 25.5105 15.8848 26.6644 20 26.6644C24.1152 26.6644 28.148 25.5105 31.6404 23.3337C35.1328 21.1569 37.9449 18.0444 39.7573 14.3498C39.9168 14.036 40 13.6889 40 13.3369C40 12.9849 39.9168 12.6379 39.7573 12.3241ZM20 2.23328C21.7593 2.2318 23.4795 2.75224 24.9429 3.72873C26.4063 4.70521 27.5471 6.09384 28.221 7.71892C28.895 9.34401 29.0717 11.1325 28.7288 12.858C28.386 14.5836 27.5389 16.1687 26.295 17.4127C25.051 18.6567 23.4659 19.5037 21.7403 19.8465C20.0148 20.1894 18.2263 20.0127 16.6012 19.3387C14.9762 18.6648 13.5875 17.524 12.611 16.0606C11.6345 14.5972 11.1141 12.877 11.1156 11.1177C11.1254 8.76718 12.0656 6.51616 13.7304 4.85686C15.3953 3.19757 17.6495 2.265 20 2.26305V2.23328ZM20 24.4555C16.2995 24.4276 12.6792 23.3744 9.54111 21.4129C6.40306 19.4515 3.87015 16.6586 2.2237 13.3444C4.19561 9.46837 7.3522 6.32221 11.2347 4.36315C9.95598 6.00461 9.16385 7.97215 8.94853 10.0417C8.7332 12.1113 9.10335 14.1998 10.0168 16.0693C10.9303 17.9389 12.3503 19.5143 14.1153 20.6164C15.8803 21.7184 17.9192 22.3027 20 22.3027C22.0808 22.3027 24.1197 21.7184 25.8847 20.6164C27.6497 19.5143 29.0697 17.9389 29.9832 16.0693C30.8966 14.1998 31.2668 12.1113 31.0515 10.0417C30.8362 7.97215 30.044 6.00461 28.7653 4.36315C32.6493 6.32008 35.8065 9.46683 37.7763 13.3444C36.134 16.6641 33.6028 19.4632 30.4645 21.4301C27.3261 23.3969 23.7036 24.4546 20 24.4853V24.4555Z" fill="#F7941E"/>
</svg>
