<svg width="41" height="34" viewBox="0 0 41 34" fill="none" xmlns="http://www.w3.org/2000/svg">
<path d="M37.9987 22.905H35.9979V16.5595C35.9979 16.0349 35.7977 15.5318 35.4414 15.1608C35.0851 14.7899 34.6018 14.5815 34.0979 14.5815H20.9999V10.4153H24.0013C24.5312 10.413 25.0388 10.1928 25.4136 9.80266C25.7883 9.4125 25.9999 8.88402 26.0021 8.33226V2.08305C25.9999 1.53129 25.7883 1.0028 25.4136 0.612651C25.0388 0.222498 24.5312 0.00230381 24.0013 0H15.9979C15.4679 0.00230381 14.9602 0.222498 14.5855 0.612651C14.2107 1.0028 13.9992 1.53129 13.997 2.08305V8.33226C13.9992 8.88402 14.2107 9.4125 14.5855 9.80266C14.9602 10.1928 15.4679 10.413 15.9979 10.4153H19.0328V14.5815H5.9348C5.4309 14.5815 4.94768 14.7899 4.59136 15.1608C4.23505 15.5318 4.03484 16.0349 4.03484 16.5595V22.905H2.03405C1.50407 22.9073 0.996396 23.1275 0.621644 23.5177C0.246893 23.9078 0.035416 24.4363 0.0332031 24.9881V31.2372C0.035416 31.789 0.246893 32.3175 0.621644 32.7077C0.996396 33.0978 1.50407 33.318 2.03405 33.3203H8.03658C8.56655 33.318 9.07413 33.0978 9.44888 32.7077C9.82363 32.3175 10.0352 31.789 10.0374 31.2372V24.9881C10.0352 24.4363 9.82363 23.9078 9.44888 23.5177C9.07413 23.1275 8.56655 22.9073 8.03658 22.905H6.03568V16.6645H19.0328V22.905H17.0319C16.5019 22.9073 15.9943 23.1275 15.6195 23.5177C15.2448 23.9078 15.0333 24.4363 15.0311 24.9881V31.2372C15.0333 31.789 15.2448 32.3175 15.6195 32.7077C15.9943 33.0978 16.5019 33.318 17.0319 33.3203H23.0344C23.5644 33.318 24.0721 33.0978 24.4468 32.7077C24.8216 32.3175 25.0331 31.789 25.0353 31.2372V24.9881C25.0331 24.4363 24.8216 23.9078 24.4468 23.5177C24.0721 23.1275 23.5644 22.9073 23.0344 22.905H21.0336V16.6645H34.0306V22.905H32.0298C31.5006 22.9073 30.9939 23.1278 30.6204 23.5182C30.247 23.9086 30.0373 24.4371 30.0373 24.9881V31.2372C30.0373 31.7882 30.247 32.3167 30.6204 32.7071C30.9939 33.0975 31.5006 33.318 32.0298 33.3203H38.0323C38.2951 33.3203 38.5552 33.2664 38.798 33.1618C39.0407 33.0571 39.2614 32.9036 39.4472 32.7102C39.633 32.5168 39.7803 32.2871 39.8809 32.0344C39.9814 31.7817 40.0331 31.5108 40.0331 31.2372V24.9881C40.0332 24.7115 39.9803 24.4378 39.8777 24.1827C39.775 23.9277 39.6246 23.6965 39.4353 23.5026C39.2459 23.3087 39.0213 23.156 38.7747 23.0534C38.528 22.9508 38.2643 22.9003 37.9987 22.905ZM8.00292 24.9881V31.2372H2.00039V24.9881H8.00292ZM23.0008 24.9881V31.2372H16.9982V24.9881H23.0008ZM15.9979 8.35852V2.1093H24.0013V8.35852H15.9979ZM37.9987 31.2635H31.9962V25.0143H37.9987V31.2635Z" fill="#F7941E"/>
</svg>
