<svg width="40" height="40" viewBox="0 0 40 40" fill="none" xmlns="http://www.w3.org/2000/svg">
<path d="M20.0088 1.94843e-06C16.0528 -0.00174386 12.1851 1.16974 8.89498 3.36631C5.60483 5.56288 3.04007 8.68587 1.52496 12.3402C0.00984977 15.9946 -0.387481 20.0162 0.383227 23.8964C1.15394 27.7766 3.05804 31.3411 5.85474 34.1391C8.65145 36.937 12.2151 38.8427 16.095 39.6151C19.9748 40.3875 23.9966 39.992 27.6516 38.4785C31.3066 36.965 34.4308 34.4016 36.6288 31.1124C38.8268 27.8232 40 23.956 40 20C40.0012 17.374 39.485 14.7735 38.4809 12.347C37.4767 9.92054 36.0043 7.7157 34.1478 5.85842C32.2914 4.00113 30.0872 2.5278 27.6612 1.5226C25.2352 0.517393 22.6348 1.69249e-06 20.0088 1.94843e-06V1.94843e-06ZM35.5869 12.2595H28.9321C28.3846 9.11176 27.2013 6.1086 25.4545 3.43338C27.6421 4.16363 29.6635 5.31942 31.4025 6.8342C33.1415 8.34898 34.5636 10.1928 35.5869 12.2595V12.2595ZM27.105 20C27.1042 21.7239 26.9892 23.4458 26.7608 25.1545H13.2657C12.795 21.7313 12.795 18.2599 13.2657 14.8367H26.7608C26.9895 16.5483 27.1045 18.2732 27.105 20V20ZM20.0441 2.58605C22.2153 2.58605 24.9956 6.11651 26.346 12.2948H13.7511C15.0573 6.13416 17.8464 2.58605 20.0088 2.58605H20.0441ZM14.6072 3.46867C12.8386 6.13803 11.637 9.14211 11.0767 12.2948H4.43073C5.45216 10.2242 6.87453 8.37703 8.61539 6.86041C10.3562 5.34379 12.3809 4.18793 14.572 3.45986L14.6072 3.46867ZM2.63016 20.0089C2.62783 18.2578 2.89273 16.5167 3.4157 14.8456H10.7149C10.4901 16.5576 10.3751 18.2822 10.3707 20.0089C10.371 21.7328 10.486 23.4547 10.7149 25.1633H3.4157C2.87981 23.4943 2.60294 21.753 2.59483 20L2.63016 20.0089ZM4.4748 27.7405H11.1209C11.6804 30.8934 12.8821 33.8977 14.6514 36.5667C12.4474 35.8468 10.4091 34.6946 8.65568 33.1776C6.90227 31.6606 5.46899 29.8092 4.43957 27.7317L4.4748 27.7405ZM20.0441 37.4493C17.8817 37.4493 15.0926 33.9188 13.7511 27.7405H26.346C24.9956 33.8659 22.2153 37.4493 20.0441 37.4493V37.4493ZM25.4899 36.5667C27.236 33.8911 28.4191 30.8881 28.9673 27.7405H35.6223C34.5912 29.8041 33.162 31.6433 31.4169 33.152C29.6719 34.6608 27.6455 35.8093 25.4545 36.5314L25.4899 36.5667ZM29.3821 25.1898C29.6036 23.4805 29.7156 21.7589 29.7175 20.0353C29.7203 18.3087 29.6083 16.5838 29.3821 14.872H36.6814C37.717 18.2333 37.717 21.8285 36.6814 25.1898H29.3821Z" fill="#F7941E"/>
</svg>
