<svg width="40" height="32" viewBox="0 0 40 32" fill="none" xmlns="http://www.w3.org/2000/svg">
    <path
        d="M33.1213 23.4231H34.3753C34.54 23.4207 34.6972 23.3508 34.8128 23.2286C34.9285 23.1065 34.9932 22.9419 34.9932 22.7704V3.25424C34.9932 3.08273 34.9285 2.9181 34.8128 2.79595C34.6972 2.67381 34.54 2.60396 34.3753 2.60151H33.1213C32.9558 2.60392 32.7977 2.67347 32.6806 2.79536C32.5635 2.91724 32.4967 3.08188 32.4944 3.25424V22.7704C32.4967 22.9427 32.5635 23.1074 32.6806 23.2293C32.7977 23.3512 32.9558 23.4207 33.1213 23.4231ZM25.6247 23.4231H26.8697C27.0359 23.4231 27.1954 23.3544 27.313 23.2319C27.4306 23.1095 27.4966 22.9435 27.4966 22.7704V11.0588C27.4966 10.8857 27.4306 10.7197 27.313 10.5973C27.1954 10.4749 27.0359 10.4061 26.8697 10.4061H25.6247C25.4591 10.4085 25.301 10.4781 25.184 10.5999C25.0669 10.7218 25.0001 10.8865 24.9978 11.0588V22.7704C25.0001 22.9427 25.0669 23.1074 25.184 23.2293C25.301 23.3512 25.4591 23.4207 25.6247 23.4231ZM10.6225 23.4231H11.8764C12.042 23.4207 12.2 23.3512 12.3171 23.2293C12.4342 23.1074 12.501 22.9427 12.5033 22.7704V16.2432C12.501 16.0718 12.4339 15.9081 12.3166 15.7877C12.1993 15.6673 12.0411 15.5998 11.8764 15.5999H10.6225C10.4586 15.5999 10.3014 15.6677 10.1855 15.7883C10.0696 15.909 10.0044 16.0726 10.0044 16.2432V22.7704C10.0044 22.9419 10.0693 23.1065 10.1849 23.2286C10.3006 23.3508 10.4577 23.4207 10.6225 23.4231ZM18.1281 23.4231H19.373C19.5393 23.4231 19.6988 23.3544 19.8164 23.2319C19.934 23.1095 19.9999 22.9435 19.9999 22.7704V5.85578C19.9999 5.68267 19.934 5.51663 19.8164 5.39422C19.6988 5.27181 19.5393 5.20305 19.373 5.20305H18.1281C17.9618 5.20305 17.8023 5.27181 17.6847 5.39422C17.5671 5.51663 17.5011 5.68267 17.5011 5.85578V22.7704C17.5011 22.9435 17.5671 23.1095 17.6847 23.2319C17.8023 23.3544 17.9618 23.4231 18.1281 23.4231ZM39.373 28.6262H2.49886V0.652697C2.50005 0.567425 2.48494 0.48276 2.45442 0.403621C2.42389 0.324482 2.37853 0.252444 2.32103 0.191709C2.26352 0.130973 2.19499 0.0827415 2.11942 0.0498266C2.04385 0.0169117 1.96277 -8.95318e-06 1.88085 3.55399e-09H0.626915C0.460635 3.55393e-09 0.301202 0.0687603 0.183625 0.191168C0.0660471 0.313576 0 0.479587 0 0.652697V29.885C0 30.2312 0.132094 30.5632 0.367249 30.808C0.602404 31.0529 0.921325 31.1904 1.25388 31.1904H39.373C39.4553 31.1904 39.5369 31.1735 39.613 31.1407C39.689 31.1079 39.7581 31.0598 39.8163 30.9992C39.8745 30.9386 39.9207 30.8667 39.9522 30.7875C39.9837 30.7083 40 30.6234 40 30.5377V29.2416C39.9908 29.075 39.9207 28.9184 39.8041 28.804C39.6875 28.6895 39.5332 28.6259 39.373 28.6262Z"
        fill="#F7941E" />
</svg>