<svg width="40" height="36" viewBox="0 0 40 36" fill="none" xmlns="http://www.w3.org/2000/svg">
<g clip-path="url(#clip0_2416_36890)">
<path d="M20.0008 14.441C18.901 14.4393 17.8253 14.7638 16.91 15.3736C15.9947 15.9833 15.2808 16.8509 14.8587 17.8666C14.4366 18.8822 14.3252 20.0002 14.5387 21.0791C14.7522 22.158 15.281 23.1493 16.058 23.9277C16.8351 24.706 17.8256 25.2363 18.9042 25.4516C19.9828 25.6668 21.101 25.5572 22.1173 25.1367C23.1336 24.7162 24.0023 24.0037 24.6135 23.0893C25.2247 22.175 25.551 21.0998 25.551 20C25.551 18.5272 24.9665 17.1146 23.9259 16.0723C22.8853 15.0301 21.4736 14.4434 20.0008 14.441ZM20.0008 23.3319C19.3418 23.3319 18.6977 23.1365 18.1497 22.7703C17.6018 22.4042 17.1747 21.8839 16.9226 21.2751C16.6704 20.6662 16.6044 19.9963 16.733 19.35C16.8615 18.7037 17.1789 18.11 17.6448 17.644C18.1108 17.1781 18.7045 16.8607 19.3508 16.7322C19.9971 16.6036 20.667 16.6696 21.2758 16.9218C21.8847 17.1739 22.405 17.601 22.7712 18.1489C23.1373 18.6969 23.3327 19.341 23.3327 20C23.335 20.439 23.2505 20.8742 23.0841 21.2805C22.9177 21.6868 22.6727 22.0562 22.3631 22.3674C22.0535 22.6787 21.6853 22.9257 21.2799 23.0942C20.8745 23.2628 20.4398 23.3496 20.0008 23.3495V23.3319ZM35.5554 4.44543H24.4374V2.2183C24.4374 1.62997 24.2037 1.06574 23.7877 0.649729C23.3717 0.233718 22.8074 0 22.2191 0H17.8002C17.2119 0 16.6476 0.233718 16.2316 0.649729C15.8156 1.06574 15.5819 1.62997 15.5819 2.2183V4.44543H4.44626C3.27429 4.44543 2.15028 4.911 1.32157 5.73971C0.492863 6.56841 0.0273438 7.69237 0.0273438 8.86434V31.0826C0.0273438 32.2546 0.492863 33.3786 1.32157 34.2073C2.15028 35.036 3.27429 35.5016 4.44626 35.5016H35.5554C36.7273 35.5016 37.8513 35.036 38.6801 34.2073C39.5088 33.3786 39.9743 32.2546 39.9743 31.0826V8.89088C39.9778 8.30835 39.8661 7.73088 39.6456 7.19168C39.425 6.65249 39.1001 6.16221 38.6894 5.74906C38.2788 5.33592 37.7905 5.00804 37.2526 4.78431C36.7147 4.56059 36.1379 4.44541 35.5554 4.44543ZM17.7737 2.2183H22.1926V8.89088H17.7737V2.2183ZM26.6645 33.3363H13.3283V31.8074C13.3216 31.178 13.5065 30.5615 13.8585 30.0398C14.1359 29.6581 14.5023 29.35 14.9259 29.142C15.3494 28.9341 15.8173 28.8327 16.2889 28.8466C17.3936 28.8466 17.9239 29.4034 20.0008 29.4034C22.0777 29.4034 22.6522 28.8466 23.7039 28.8466C24.1758 28.8304 24.6446 28.9308 25.0685 29.1389C25.4924 29.347 25.8585 29.6564 26.1343 30.0398C26.4862 30.5615 26.6712 31.178 26.6645 31.8074V33.3363ZM37.7737 31.1092C37.7714 31.6976 37.5372 32.2614 37.1219 32.6783C36.7067 33.0952 36.1438 33.3316 35.5554 33.3363H28.8828V31.8074C28.8904 30.7516 28.5827 29.7176 27.999 28.8379C27.5205 28.153 26.8809 27.5964 26.1364 27.2173C25.392 26.8381 24.5656 26.648 23.7303 26.6637C22.1926 26.6637 21.8037 27.2205 20.0185 27.2205C18.2333 27.2205 17.8532 26.6637 16.3155 26.6637C15.4802 26.648 14.6538 26.8381 13.9094 27.2173C13.1649 27.5964 12.5253 28.153 12.0468 28.8379C11.4631 29.7176 11.1554 30.7516 11.163 31.8074V33.3363H4.49044C3.90048 33.334 3.33536 33.0986 2.91819 32.6814C2.50103 32.2643 2.26561 31.6991 2.26329 31.1092V8.89088C2.26561 8.30092 2.50103 7.73577 2.91819 7.31861C3.33536 6.90144 3.90048 6.66606 4.49044 6.66373H15.5996V11.0826H24.4374V6.66373H35.5554C36.1438 6.66838 36.7067 6.90479 37.1219 7.32171C37.5372 7.73863 37.7714 8.30244 37.7737 8.89088V31.1092Z" fill="#F7941E"/>
</g>
<defs>
<clipPath id="clip0_2416_36890">
<rect width="40" height="35.5546" fill="white"/>
</clipPath>
</defs>
</svg>
