<svg width="40" height="30" viewBox="0 0 40 30" fill="none" xmlns="http://www.w3.org/2000/svg">
<g clip-path="url(#clip0_2416_36384)">
<path d="M39.3645 27.4953H2.49534V0.598105C2.49534 0.515875 2.47915 0.434441 2.44768 0.35847C2.41621 0.2825 2.37009 0.213488 2.31195 0.155343C2.2538 0.0971979 2.18476 0.051079 2.10879 0.0196111C2.03282 -0.0118568 1.95139 -0.0280762 1.86916 -0.0280762H0.626181C0.543951 -0.0280762 0.462517 -0.0118568 0.386546 0.0196111C0.310576 0.051079 0.241564 0.0971979 0.183419 0.155343C0.125274 0.213488 0.0791552 0.2825 0.0476873 0.35847C0.0162194 0.434441 0 0.515875 0 0.598105V28.7196C0 29.0493 0.130966 29.3654 0.364072 29.5985C0.597178 29.8316 0.913345 29.9626 1.24301 29.9626H39.3645C39.529 29.9626 39.6868 29.8979 39.804 29.7825C39.9212 29.6671 39.9882 29.5102 39.9907 29.3458V28.0934C39.9834 27.9323 39.9143 27.7801 39.7976 27.6687C39.681 27.5572 39.5258 27.4951 39.3645 27.4953ZM14.2523 13.4766C14.4854 13.7095 14.8014 13.8403 15.1308 13.8403C15.4603 13.8403 15.7763 13.7095 16.0093 13.4766L22.6262 6.86912L29.0467 13.2897L25.5514 16.785C25.2695 17.0445 25.074 17.3843 24.9916 17.7585C24.9091 18.1326 24.9437 18.5231 25.0906 18.877C25.2374 19.2309 25.4895 19.5311 25.8127 19.737C26.1358 19.9429 26.5144 20.0445 26.8972 20.028H36.243C36.4099 20.028 36.5752 19.9951 36.7294 19.9312C36.8836 19.8674 37.0237 19.7738 37.1417 19.6557C37.2598 19.5377 37.3534 19.3976 37.4173 19.2434C37.4812 19.0892 37.514 18.9239 37.514 18.757V9.41118C37.5141 9.16174 37.4642 8.9148 37.3674 8.68492C37.2706 8.45504 37.1287 8.24688 36.9501 8.07269C36.7716 7.89849 36.56 7.76182 36.3278 7.67068C36.0956 7.57954 35.8475 7.53579 35.5982 7.54202C35.3509 7.54305 35.1062 7.59314 34.8784 7.68939C34.6506 7.78565 34.4442 7.92616 34.271 8.10278L30.8318 11.542L23.5234 4.23363C23.2887 4.00021 22.9712 3.86916 22.6402 3.86916C22.3092 3.86916 21.9917 4.00021 21.757 4.23363L15.1402 10.8504L9.46729 5.24297C9.40778 5.1784 9.33552 5.12685 9.2551 5.0916C9.17467 5.05636 9.08782 5.03816 9 5.03816C8.91219 5.03816 8.82534 5.05636 8.74491 5.0916C8.66448 5.12685 8.59223 5.1784 8.53271 5.24297L7.65421 6.17755C7.596 6.23493 7.5498 6.30333 7.51825 6.37873C7.4867 6.45414 7.47045 6.53506 7.47045 6.6168C7.47045 6.69854 7.4867 6.77946 7.51825 6.85486C7.5498 6.93027 7.596 6.99867 7.65421 7.05605L14.1963 13.5981L14.2523 13.4766ZM35 10.8785V17.5233H28.3552L35 10.8785Z" fill="#F7941E"/>
</g>
<defs>
<clipPath id="clip0_2416_36384">
<rect width="40" height="30" fill="white"/>
</clipPath>
</defs>
</svg>
