<svg width="26" height="35" viewBox="0 0 26 35" fill="none" xmlns="http://www.w3.org/2000/svg">
<path d="M25.0524 6.69488L19.3702 0.957564C18.7582 0.346055 17.9326 0.00211479 17.0716 0H3.25585C2.40322 0 1.58552 0.341986 0.982617 0.950729C0.379718 1.55947 0.0410156 2.38511 0.0410156 3.246V31.6891C0.0410156 32.55 0.379718 33.3756 0.982617 33.9843C1.58552 34.5931 2.40322 34.9351 3.25585 34.9351H22.7538C23.6065 34.9351 24.4242 34.5931 25.0271 33.9843C25.63 33.3756 25.9687 32.55 25.9687 31.6891V8.96707C25.9694 8.11781 25.6405 7.30209 25.0524 6.69488ZM23.5174 8.24484C23.656 8.38259 23.7535 8.55694 23.7987 8.74797H17.369V2.25597C17.5593 2.30476 17.7338 2.40264 17.8753 2.54L23.5174 8.24484ZM22.7137 32.8171H3.25585C2.96809 32.8171 2.69212 32.7017 2.48864 32.4962C2.28516 32.2908 2.17087 32.0121 2.17087 31.7215V3.27847C2.17086 3.13498 2.199 2.9929 2.25362 2.86043C2.30824 2.72797 2.38827 2.60775 2.48913 2.50667C2.58999 2.40558 2.70965 2.32564 2.84124 2.27147C2.97284 2.2173 3.11375 2.18996 3.25585 2.19104H15.1668V9.29978C15.1668 9.73023 15.3362 10.143 15.6377 10.4474C15.9391 10.7518 16.3479 10.9228 16.7743 10.9228H23.8148V31.7053C23.817 31.9939 23.7072 32.2719 23.5088 32.4797C23.3105 32.6875 23.0395 32.8086 22.7538 32.8171H22.7137ZM20.3749 18.3886L11.2528 27.5342C11.1779 27.6115 11.0885 27.6729 10.9898 27.7148C10.8912 27.7568 10.7852 27.7784 10.6781 27.7784C10.5711 27.7784 10.4651 27.7568 10.3664 27.7148C10.2677 27.6729 10.1783 27.6115 10.1035 27.5342L5.54645 22.9168C5.4699 22.8412 5.40908 22.7509 5.36755 22.6513C5.32603 22.5517 5.30462 22.4446 5.30462 22.3365C5.30462 22.2284 5.32603 22.1214 5.36755 22.0218C5.40908 21.9222 5.4699 21.8319 5.54645 21.7563L6.1251 21.1802C6.19995 21.1029 6.28935 21.0415 6.38803 20.9995C6.48672 20.9576 6.59271 20.936 6.69977 20.936C6.80684 20.936 6.91279 20.9576 7.01147 20.9995C7.11015 21.0415 7.19955 21.1029 7.2744 21.1802L10.6902 24.6371L18.663 16.652C18.7378 16.5747 18.8272 16.5133 18.9259 16.4713C19.0246 16.4294 19.1306 16.4078 19.2376 16.4078C19.3447 16.4078 19.4507 16.4294 19.5494 16.4713C19.648 16.5133 19.7374 16.5747 19.8123 16.652L20.3829 17.2281C20.4594 17.3037 20.5203 17.394 20.5618 17.4936C20.6033 17.5933 20.6247 17.7003 20.6247 17.8084C20.6247 17.9165 20.6033 18.0235 20.5618 18.1231C20.5203 18.2228 20.4594 18.313 20.3829 18.3886H20.3749Z" fill="#F7941E"/>
</svg>
