<svg width="40" height="28" viewBox="0 0 40 28" fill="none" xmlns="http://www.w3.org/2000/svg">
<path d="M33.9954 11.9797C34.9842 11.9797 35.9507 11.6866 36.7727 11.1372C37.5948 10.5879 38.2356 9.80719 38.6139 8.89373C38.9923 7.98027 39.0913 6.97514 38.8984 6.00542C38.7056 5.03569 38.2294 4.14494 37.5303 3.44581C36.8312 2.74668 35.9404 2.27057 34.9707 2.07768C34.001 1.88479 32.9959 1.98377 32.0824 2.36214C31.1689 2.7405 30.3882 3.38125 29.8389 4.20334C29.2896 5.02543 28.9964 5.99195 28.9964 6.98067C28.9964 8.30651 29.523 9.57803 30.4605 10.5155C31.3981 11.453 32.6696 11.9797 33.9954 11.9797ZM33.9954 3.97823C34.5893 3.97823 35.1698 4.15433 35.6635 4.48424C36.1573 4.81416 36.5421 5.28307 36.7693 5.83169C36.9966 6.38032 37.056 6.98401 36.9402 7.56642C36.8243 8.14884 36.5384 8.68382 36.1185 9.10372C35.6986 9.52362 35.1636 9.80958 34.5812 9.92543C33.9987 10.0413 33.3951 9.98182 32.8464 9.75457C32.2978 9.52732 31.8289 9.14249 31.499 8.64875C31.1691 8.155 30.993 7.5745 30.993 6.98067C30.9989 6.18828 31.3179 5.43038 31.8803 4.87217C32.4427 4.31397 33.203 4.00073 33.9954 4.00075V3.97823ZM19.9965 14.0064C21.3816 14.0064 22.7356 13.5957 23.8873 12.8261C25.039 12.0566 25.9366 10.9629 26.4667 9.68319C26.9967 8.40353 27.1354 6.99542 26.8652 5.63694C26.595 4.27845 25.928 3.03061 24.9486 2.0512C23.9692 1.07179 22.7213 0.404784 21.3628 0.134565C20.0043 -0.135655 18.5962 0.00304226 17.3165 0.533097C16.0369 1.06315 14.9432 1.96076 14.1736 3.11243C13.4041 4.26409 12.9934 5.61809 12.9934 7.00319C12.9934 8.86055 13.7312 10.6419 15.0445 11.9552C16.3579 13.2686 18.1392 14.0064 19.9965 14.0064ZM19.9965 1.99664C20.9853 1.99664 21.9518 2.28982 22.7739 2.83912C23.596 3.38843 24.2367 4.16918 24.6151 5.08264C24.9935 5.9961 25.0924 7.00123 24.8996 7.97096C24.7067 8.94068 24.2306 9.83143 23.5314 10.5306C22.8323 11.2297 21.9415 11.7058 20.9718 11.8987C20.0021 12.0916 18.997 11.9926 18.0835 11.6142C17.17 11.2358 16.3893 10.5951 15.84 9.77301C15.2907 8.95092 14.9975 7.9844 14.9975 6.99568C15.0015 5.67175 15.5297 4.4033 16.4665 3.46785C17.4034 2.53239 18.6726 2.0061 19.9965 2.00413V1.99664ZM35.2414 14.0064H32.7419C31.8244 14.0064 30.9287 14.2866 30.1748 14.8095C30.7594 15.2093 31.2937 15.678 31.7661 16.2057C32.0749 16.0746 32.4065 16.0058 32.7419 16.003H35.2414C36.0041 16.0381 36.7219 16.3735 37.238 16.9361C37.7542 17.4987 38.0267 18.2426 37.9962 19.0054C37.9962 19.2702 38.1014 19.5242 38.2886 19.7114C38.4758 19.8986 38.7297 20.0038 38.9945 20.0038C39.2592 20.0038 39.5132 19.8986 39.7004 19.7114C39.8876 19.5242 39.9928 19.2702 39.9928 19.0054C40.0251 17.7126 39.5427 16.4599 38.6518 15.5225C37.7609 14.5851 36.5342 14.0398 35.2414 14.0064ZM5.96764 12.0023C6.95636 12.0023 7.92291 11.7091 8.745 11.1598C9.56709 10.6105 10.2078 9.82971 10.5862 8.91625C10.9646 8.00279 11.0635 6.99766 10.8707 6.02793C10.6778 5.05821 10.2017 4.16746 9.50253 3.46833C8.80339 2.7692 7.91264 2.29309 6.94292 2.1002C5.9732 1.90731 4.96806 2.00629 4.0546 2.38465C3.14114 2.76302 2.36042 3.40376 1.81111 4.22586C1.26181 5.04795 0.968599 6.01447 0.968599 7.00319C0.971548 7.66031 1.104 8.31042 1.35843 8.9163C1.61285 9.52217 1.98426 10.0719 2.45136 10.5342C2.91845 10.9964 3.47211 11.3619 4.08062 11.61C4.68914 11.858 5.34058 11.9837 5.99769 11.9797L5.96764 12.0023ZM5.96764 4.00075C6.56147 4.00075 7.14196 4.17685 7.63571 4.50676C8.12946 4.83667 8.51431 5.30558 8.74156 5.85421C8.96881 6.40283 9.02825 7.00652 8.9124 7.58894C8.79655 8.17136 8.51059 8.70634 8.09069 9.12624C7.67079 9.54614 7.13583 9.8321 6.55341 9.94795C5.971 10.0638 5.36731 10.0043 4.81868 9.77709C4.27006 9.54984 3.80112 9.16501 3.47121 8.67126C3.1413 8.17751 2.9652 7.59702 2.9652 7.00319C2.96518 6.60636 3.04384 6.21347 3.19661 5.84722C3.34937 5.48098 3.57323 5.14867 3.85522 4.86947C4.13721 4.59027 4.47174 4.36974 4.83948 4.22063C5.20723 4.07152 5.60089 3.99678 5.99769 4.00075H5.96764ZM24.9731 15.2599C22.8864 15.2599 22.3685 16.0105 19.9665 16.0105C17.5646 16.0105 17.0467 15.2599 14.96 15.2599C13.8321 15.2386 12.7162 15.4952 11.7109 16.007C10.7056 16.5189 9.84167 17.2702 9.1953 18.1948C8.39025 19.379 7.96121 20.7786 7.96429 22.2106V25.0103C7.96429 25.8066 8.28061 26.5703 8.84368 27.1334C9.40675 27.6964 10.1704 28.0128 10.9667 28.0128H28.9814C29.7777 28.0128 30.5413 27.6964 31.1044 27.1334C31.6675 26.5703 31.9838 25.8066 31.9838 25.0103V22.2106C31.9869 20.7786 31.5578 19.379 30.7528 18.1948C30.1064 17.2702 29.2425 16.5189 28.2372 16.007C27.2318 15.4952 26.116 15.2386 24.9881 15.2599H24.9731ZM29.9647 25.0178C29.9627 25.282 29.8569 25.5348 29.6701 25.7216C29.4833 25.9084 29.2305 26.0142 28.9663 26.0162H10.9517C10.6875 26.0142 10.4348 25.9084 10.248 25.7216C10.0612 25.5348 9.95534 25.282 9.95338 25.0178V22.2181C9.9555 21.187 10.261 20.1794 10.8316 19.3207C11.2956 18.6682 11.9125 18.1395 12.6283 17.7809C13.3442 17.4223 14.137 17.2449 14.9374 17.264C16.6488 17.264 17.2643 18.0146 19.9515 18.0146C22.6387 18.0146 23.2542 17.264 24.9581 17.264C25.7585 17.2449 26.5514 17.4223 27.2672 17.7809C27.983 18.1395 28.6 18.6682 29.0639 19.3207C29.6346 20.1794 29.94 21.187 29.9421 22.2181V25.0178H29.9647ZM9.78826 14.8246C9.03226 14.3001 8.13377 14.0198 7.21368 14.0214H4.71414C3.42266 14.0568 2.19795 14.6029 1.30863 15.5401C0.419308 16.4773 -0.062011 17.7289 -0.0297245 19.0205C-0.0297245 19.2852 0.075484 19.5391 0.262704 19.7264C0.449923 19.9136 0.703831 20.0188 0.968599 20.0188C1.23337 20.0188 1.48728 19.9136 1.6745 19.7264C1.86171 19.5391 1.96692 19.2852 1.96692 19.0205C1.93633 18.2589 2.20785 17.516 2.72239 16.9536C3.23693 16.3913 3.95281 16.055 4.71414 16.018H7.21368C7.55161 16.02 7.8858 16.0889 8.19698 16.2207C8.66938 15.693 9.20366 15.2243 9.78826 14.8246Z" fill="#F7941E"/>
</svg>
