<svg width="150" height="0" viewBox="0 0 601 209" fill="none" xmlns="http://www.w3.org/2000/svg">
    <path
        d="M37 33.3H64.1C83.2 33.3 93.2 44.5999 93.2 68.3999C93.2 85.7999 87.7 103.8 67.2 103.8H37.3V33.2L37 33.3ZM376.6 4.49995H345.1L308.6 111.3C306.4 111 303.9 110.7 301.4 110.7C303.9 106 305.3 99.8999 305.3 92.3999C305.3 69.9999 293.1 60.3 273.2 56.1C262.7 53.9 235 49.2 225.9 47.2C220.4 46.1 217.9 43.6 217.9 39.5C217.9 31.2 224.5 27 236.4 27C252.7 27 258.8 33.0999 259.6 41.8999H300.3C298.1 11.6999 274.6 0.699951 235.5 0.699951C188.2 0.699951 179.6 24.4999 179.6 41.3999C179.6 60.1999 188.2 73.4999 210.3 77.3999L246.3 83.7999C258.8 85.9999 263.2 88.5 263.2 95.1C263.2 103.1 257.9 106.4 251.6 107.8C245.2 107.5 238.9 107.2 232.5 107.2C223.6 105 220.9 99.6999 220.3 92.7999H177.7C178 98.5999 179.1 103.6 180.7 107.7C177.7 107.7 174.9 108 172.1 108V4.79996H136.1V110.5C130 111.1 123.9 111.6 117.8 112.2C125 102.8 129.1 89.2 129.1 68.7C129.1 26.1 111.1 4.99995 77.9 4.99995H0.5V131.2C1.1 131.2 1.6 130.9 2.2 130.9C57 122.6 116.5 118.4 179 119.8C374.9 124 522.7 154.1 600.5 208.4C551.2 163.8 461.8 129.8 340.4 115.1C340.4 115.1 340.4 115.1 340.7 115.1L365.1 35.8999L376.6 4.49995Z"
        fill="black" />
    <path d="M355.9 4.5H387.4L451.9 181.9H414.5L366.1 35.5L355.9 4.5Z" fill="black" />
</svg>