<svg width="150" height="0" viewBox="0 0 360 118" fill="none" xmlns="http://www.w3.org/2000/svg">
    <path d="M0.000244141 0.113892H117.777V117.886H0.000244141V0.113892Z" fill="#6BB623" />
    <path
        d="M150.922 55.9646H159.189V45.9627H166.181V72.1294H159.189V60.9098H150.922V72.1294H143.952V45.9627H150.922V55.9646ZM176.582 64.4444C176.582 62.5728 177.481 61.6325 178.952 60.8502C180.937 62.6773 182.904 64.5552 184.765 66.6124C183.461 67.5991 182.361 68.0535 180.79 68.0535C178.681 68.0535 176.582 66.6998 176.582 64.4444V64.4444ZM190.587 57.9532C190.519 59.6353 190.071 61.3618 188.869 62.6793C187.4 61.2554 185.887 59.8654 184.352 58.5141C187.14 56.894 189.984 55.21 189.984 51.9036C189.984 47.0157 185.486 45.4487 180.896 45.4487C176.791 45.4487 172.175 47.0882 172.175 51.7117C172.175 54.0076 173.233 55.8024 175.341 57.4587C172.11 58.9661 170.191 60.957 170.191 64.5914C170.191 69.9976 175.124 72.5556 180.11 72.5556C182.96 72.5556 186.01 72.0759 188.259 70.1146C188.837 70.716 189.304 71.3915 189.837 72.1056H197.312L192.659 66.9236C195.089 64.5126 196.522 61.2874 196.681 57.9513H190.587V57.9532ZM178.2 52.0506C178.2 50.7375 179.355 49.7227 180.984 49.7227C182.597 49.7227 183.906 50.5117 183.906 52.0506C183.906 53.7795 181.988 54.8348 180.717 55.5871C179.664 54.7556 178.2 53.5579 178.2 52.0506ZM207.289 50.8568H209.144C211.791 50.8568 214.245 51.3045 214.245 53.7475C214.245 56.7041 211.393 56.7809 209.144 56.7809H207.289V50.8568ZM200.31 72.1056H207.289V61.7327H208.758C211.345 61.7327 212.249 62.8711 213.678 67.3733L215.181 72.1056H222.458L219.919 64.9623C218.606 61.7776 218.453 59.7823 216.204 59.1833V59.1151C219.567 58.3222 221.224 55.9943 221.224 52.4983C221.224 47.9962 217.444 45.8944 212.776 45.8944H200.31V72.1056ZM243.841 60.989H245.973C248.38 60.989 251.134 61.2554 251.134 64.1141C251.134 66.7786 248.459 67.1452 245.903 67.1452H243.841V60.989ZM236.853 72.1056H247.892C252.596 72.1056 258.119 70.7948 258.119 64.5127C258.119 61.3299 256.305 59.4454 252.827 58.7379V58.6568C255.753 57.6869 257.431 55.8387 257.431 52.5389C257.431 48.0281 253.799 45.8944 248.913 45.8944H236.856V72.1056H236.853ZM243.839 50.8568H245.862C248.192 50.8568 250.445 51.0787 250.445 53.4873C250.445 55.7002 248.079 56.2544 245.792 56.2544H243.839V50.8568ZM269.083 66.9256H279.891V72.1056H262.093V45.8964H269.083V66.9256ZM287.987 59.0062C287.987 54.4616 289.673 50.6267 293.911 50.6267C298.159 50.6267 299.858 54.4616 299.858 59.0062C299.858 63.3274 298.159 67.3756 293.911 67.3756C289.673 67.3756 287.987 63.3274 287.987 59.0062ZM280.781 59.0062C280.781 67.3265 285.356 72.5556 293.911 72.5556C302.478 72.5556 307.059 67.3265 307.059 59.0062C307.059 50.5904 302.546 45.4487 293.911 45.4487C285.269 45.4487 280.781 50.5904 280.781 59.0062ZM332.646 71.4983C330.655 71.9862 328.427 72.5556 324.872 72.5556C317.892 72.5556 309.815 69.0296 309.815 59.1151C309.815 49.9828 316.181 45.4467 324.827 45.4467C327.504 45.4467 330.099 46.0458 332.608 46.7981L332.045 52.4578C329.781 51.2172 327.613 50.6244 325.215 50.6244C320.239 50.6244 317.012 54.2272 317.012 59.1151C317.012 64.2611 320.657 67.3733 325.765 67.3733C328.061 67.3733 330.393 66.7766 332.297 66.0134L332.646 71.4983ZM342.833 56.6487H342.907L350.949 45.937H359.26L349.681 58.1303L360.001 72.1013H351.21L342.907 60.1957H342.833V72.1013H335.901V45.937H342.833V56.6487Z"
        fill="black" />
</svg>