<svg width="23" height="24" viewBox="0 0 23 24" fill="none" xmlns="http://www.w3.org/2000/svg">
<path d="M0.291135 24V7.95H5.24051V24H0.291135Z" fill="white"/>
<path d="M2.76582 5.7C1.16456 5.7 0 4.5 0 2.85C0 1.2 1.31013 0 2.76582 0C4.36709 0 5.53165 1.2 5.53165 2.85C5.53165 4.5 4.36709 5.7 2.76582 5.7Z" fill="white"/>
<path d="M23 24H18.3418V15.3C18.3418 12.75 17.3228 12 15.8671 12C14.4114 12 12.9557 13.2 12.9557 15.45V24H8.00633V7.95H12.6645V10.2C13.1013 9.15 14.8481 7.5 17.3228 7.5C20.0886 7.5 23 9.15 23 14.1V24Z" fill="white"/>
</svg>
