<svg width="150" height="0" viewBox="0 0 361 167" fill="none" xmlns="http://www.w3.org/2000/svg">
    <path fill-rule="evenodd" clip-rule="evenodd"
        d="M172.946 3.9458C172.946 3.9458 223.634 15.2235 223.634 52.7665C223.634 90.2693 172.946 101.854 172.946 101.854V3.9458ZM172.641 101.877C172.641 101.877 121.945 90.269 121.945 53.08C121.945 16.9447 172.641 3.97722 172.641 3.97722V101.877ZM242.337 52.9032C242.337 79.9322 211.254 101.854 172.939 101.854C134.607 101.854 103.532 79.9322 103.532 52.9032C103.532 25.8662 134.607 3.9458 172.939 3.9458C211.254 3.9458 242.337 25.8662 242.337 52.9032Z"
        stroke="#958B89" stroke-width="4.03022" />
    <path
        d="M119.227 83.5852C119.227 83.5852 140.327 67.1422 172.649 67.1422C204.963 67.1422 227.19 83.5852 227.19 83.5852M102.824 52.1069H141.212H102.824ZM205.237 52.1069H242.418H205.237Z"
        stroke="#958B89" stroke-width="4.03022" />
    <path
        d="M172.359 3.9458C172.359 3.9458 140.439 19.8891 140.439 53.0399C140.439 86.0217 172.359 101.854 172.359 101.854M172.946 101.854C172.946 101.854 204.858 86.4563 204.858 52.7665C204.858 19.471 172.946 3.9458 172.946 3.9458V101.854Z"
        stroke="#958B89" stroke-width="4.03022" />
    <path
        d="M351.499 112.585V114.524H352.698C353.751 114.524 355.208 114.717 355.208 113.631C355.208 112.649 354.363 112.585 353.438 112.585H351.499ZM356.229 119.254H354.934L352.955 115.657H351.499V119.254H350.373V111.458H353.663C355.054 111.458 356.334 111.877 356.334 113.518C356.334 115.055 355.288 115.609 354.258 115.657L356.229 119.254ZM347.236 115.304C347.236 118.562 349.882 121.096 353.052 121.096C356.221 121.096 358.859 118.562 358.859 115.304C358.859 112.014 356.229 109.504 353.052 109.504C349.882 109.504 347.236 112.014 347.236 115.304ZM346.109 115.304C346.109 111.443 349.174 108.377 353.043 108.377C356.929 108.377 360.002 111.443 360.002 115.304C360.002 119.157 356.929 122.23 353.043 122.23C349.182 122.23 346.109 119.157 346.109 115.304Z"
        fill="#003478" />
    <path d="M0.00146484 111.699H20.434V152.099H35.2917V165.211H0.00146484V111.699Z" fill="#003478" />
    <path
        d="M53.8019 138.101C53.8019 144.183 55.4751 152.018 61.1463 152.018C66.8256 152.018 68.499 144.183 68.499 138.101C68.499 132.446 67.0992 124.394 61.1463 124.394C55.2016 124.394 53.8019 132.446 53.8019 138.101ZM89.6798 138.664C89.6798 155.799 76.8891 166.015 61.1463 166.015C45.4277 166.015 32.6372 155.799 32.6372 138.664C32.6372 121.924 45.3875 110.557 61.0419 110.557C76.7122 110.557 89.6798 121.924 89.6798 138.664"
        fill="#003478" />
    <path
        d="M133.707 126.951C130.73 124.393 127.601 122.873 122.855 123.5C115.051 124.53 111.005 131.296 111.005 138.222C111.005 145.43 116.91 151.857 122.871 152.34C127.231 152.903 130.296 152.34 133.707 149.967L133.69 163.923C130.296 165.452 123.402 166.095 119.613 166.095C103.017 166.095 90.0659 154.27 90.0659 139.018C90.0659 123.428 103.089 110.557 120.143 110.557C124.922 110.557 129.21 110.581 133.69 111.997L133.707 126.951Z"
        fill="#003478" />
    <path
        d="M134.623 111.659H155.152V133.098C155.546 132.334 166.559 111.644 166.559 111.644L189.51 111.659L173.357 137.281L190.025 165.211H166.181L155.152 143.427V165.291H134.623V111.659Z"
        fill="#003478" />
    <path d="M189.792 111.651H233.513V125.753H221.904L221.864 165.211H201.239L201.206 125.753H189.792V111.651Z"
        fill="#003478" />
    <path
        d="M290.482 111.893H312.894L325.041 138.415L324.816 111.909H345.361V165.452H322.733L311.462 139.774V165.532L290.475 165.452L290.482 111.893Z"
        fill="#003478" />
    <path
        d="M253.133 138.061C253.133 144.143 254.846 151.777 260.654 151.777C266.47 151.777 268.176 144.143 268.176 138.061C268.176 132.406 266.76 124.209 260.654 124.209C254.565 124.209 253.133 132.406 253.133 138.061ZM289.863 138.496C289.863 155.558 276.325 166.095 260.22 166.095C244.115 166.095 231.461 155.558 231.461 138.496C231.461 121.739 244.622 110.525 260.654 110.525C276.695 110.525 289.863 121.739 289.863 138.496Z"
        fill="#003478" />
    <path
        d="M202.542 47.3127C203.241 52.622 202.614 57.6737 202.614 57.6737H145.596C138.155 57.6737 138.525 50.0238 138.525 50.0238C141.187 14.2184 172.391 1.95876 172.391 1.95876C174.644 1.8381 179.808 2.15202 179.808 2.15202C179.808 2.15202 152.956 18.5139 150.093 47.3127H202.542Z"
        fill="#003478" />
</svg>