<svg width="150" height="0" viewBox="0 0 560 162" fill="none" xmlns="http://www.w3.org/2000/svg">
    <path fill-rule="evenodd" clip-rule="evenodd" d="M26.0879 26.365H77.6429L77.6389 77.92H26.0879V26.365Z"
        fill="#F65314" />
    <path fill-rule="evenodd" clip-rule="evenodd"
        d="M82.907 26.365H134.462C134.462 43.55 134.465 60.735 134.459 77.92C117.277 77.917 100.092 77.92 82.91 77.92C82.904 60.735 82.907 43.55 82.907 26.365Z"
        fill="#7FBB41" />
    <path fill-rule="evenodd" clip-rule="evenodd"
        d="M490.997 46.009C495.75 42.916 501.891 42.6271 507.247 44.1011C507.294 47.2851 507.253 50.471 507.268 53.656C504.723 52.536 501.728 51.805 499.051 52.904C496.926 53.7471 495.662 55.927 495.332 58.106C494.933 60.871 495.192 63.6731 495.124 66.4541C500.562 66.4661 505.999 66.4571 511.436 66.4601C511.477 62.93 511.393 59.397 511.483 55.867C515.18 54.816 518.836 53.6351 522.515 52.5271C522.546 57.1771 522.472 61.831 522.556 66.485C526.231 66.432 529.91 66.4731 533.588 66.4601V75.515C529.897 75.362 526.203 75.473 522.513 75.461C522.528 80.667 522.515 85.8721 522.518 91.0791C522.577 93.9621 522.364 96.8601 522.701 99.7341C522.905 101.428 523.522 103.305 525.109 104.181C527.77 105.67 531.145 105.02 533.588 103.385V112.528C530.401 113.912 526.841 114.334 523.395 114.089C520.124 113.847 516.738 112.659 514.604 110.057C512.139 107.119 511.505 103.14 511.455 99.418C511.427 91.43 511.458 83.441 511.443 75.449C506.002 75.445 500.562 75.4431 495.124 75.4521C495.118 87.9891 495.121 100.527 495.121 113.065H483.971C483.971 100.529 483.955 87.9991 483.977 75.4651C481.391 75.4151 478.803 75.4771 476.218 75.4241C476.227 72.4491 476.239 69.4701 476.211 66.4911C478.785 66.4321 481.361 66.4571 483.941 66.4761C484.129 62.5181 483.526 58.4471 484.709 54.5921C485.708 51.1121 487.932 47.972 490.997 46.009ZM252.271 46.6591C254.519 46.3181 256.952 47.086 258.442 48.845C260.189 50.771 260.511 53.8361 259.216 56.0881C257.785 58.6261 254.584 59.806 251.794 59.197C248.899 58.677 246.487 55.985 246.616 52.985C246.533 49.827 249.174 47.012 252.271 46.658V46.6591ZM166.819 48.0401H183.035C188.082 60.8571 193.166 73.659 198.22 86.475C199.511 89.681 200.719 92.922 202.072 96.102C208.565 80.088 215.151 64.1141 221.594 48.0771C226.794 47.9931 231.995 48.058 237.197 48.046C237.185 69.718 237.191 91.389 237.195 113.061C233.442 113.052 229.692 113.093 225.942 113.039C225.982 97.047 225.939 81.054 225.961 65.058C225.967 64.339 225.942 63.62 225.892 62.903C225.672 63.237 225.478 63.584 225.308 63.944C218.863 80.313 212.296 96.6371 205.89 113.023C203.221 113.12 200.549 113.03 197.876 113.072C191.229 96.7031 184.664 80.295 178.05 63.912C177.876 63.571 177.691 63.2401 177.489 62.9221C177.353 69.9281 177.468 76.941 177.431 83.949C177.433 93.653 177.425 103.357 177.433 113.061C173.895 113.07 170.356 113.061 166.819 113.065C166.816 91.389 166.813 69.7141 166.819 48.0401ZM282.957 66.4171C288.337 64.8841 294.141 64.946 299.519 66.466C300.628 66.776 301.701 67.2061 302.7 67.7921C302.637 71.3431 302.7 74.898 302.665 78.453C299.069 75.706 294.509 73.9661 289.939 74.5421C286.309 74.8701 282.848 76.7531 280.678 79.6851C277.887 83.3201 277.243 88.1471 277.724 92.5941C278.083 96.0741 279.522 99.5521 282.229 101.859C285.04 104.357 288.981 105.242 292.66 104.964C296.296 104.546 299.727 103.006 302.665 100.857C302.696 104.223 302.649 107.589 302.69 110.955C298.131 113.668 292.667 114.367 287.449 114.112C282.111 113.829 276.788 111.807 272.924 108.054C268.725 104.007 266.446 98.235 266.176 92.455C265.904 86.444 267.127 80.174 270.586 75.155C273.484 70.872 278.018 67.8411 282.957 66.4171ZM404.753 65.7081C409.909 64.8001 415.306 65.466 420.185 67.315C420.192 70.734 420.185 74.1481 420.188 77.5641C416.779 75.2201 412.614 73.9591 408.477 74.1051C406.394 74.1861 404.103 75.069 403.152 77.05C402.396 79.01 402.92 81.5801 404.769 82.7541C407.929 84.8691 411.701 85.7671 414.977 87.6611C417.556 89.1111 420.058 91.005 421.366 93.737C423.821 98.852 422.781 105.612 418.463 109.427C414.343 113.278 408.407 114.343 402.948 114.139C399.071 113.888 395.176 113.123 391.612 111.537C391.628 107.943 391.59 104.351 391.63 100.759C394.628 102.936 398.086 104.493 401.746 105.125C404.295 105.539 407.067 105.559 409.441 104.419C411.714 103.289 412.122 100.059 410.773 98.083C409.509 96.5601 407.654 95.7221 405.905 94.8981C402.62 93.4211 399.167 92.185 396.282 89.972C394.253 88.389 392.717 86.16 392.117 83.645C391.225 79.939 391.503 75.7621 393.658 72.5231C396.12 68.7481 400.396 66.4851 404.753 65.7081ZM327.631 67.1761C330.708 65.3271 334.619 65.1721 337.979 66.3031C337.964 70.0221 337.979 73.739 337.97 77.458C335.771 76.035 333.028 75.424 330.434 75.688C327.268 76.047 324.76 78.477 323.461 81.265C322.048 84.215 321.782 87.552 321.871 90.779C321.871 98.2071 321.875 105.636 321.871 113.065H310.879C310.87 97.539 310.892 82.011 310.87 66.485C314.539 66.438 318.209 66.4571 321.878 66.475C321.863 69.142 321.878 71.807 321.869 74.477C323.061 71.576 324.835 68.758 327.631 67.175V67.1761ZM247.629 66.475C251.326 66.4601 255.027 66.424 258.723 66.494C258.68 82.018 258.721 97.542 258.705 113.065H247.635C247.626 97.536 247.639 82.0071 247.629 66.4761V66.475ZM358.499 65.615C363.85 64.934 369.494 65.238 374.461 67.498C378.771 69.442 382.264 73.0371 384.199 77.3421C386.263 81.9221 386.766 87.07 386.416 92.0401C386.072 96.8911 384.549 101.753 381.514 105.608C378.409 109.702 373.728 112.476 368.714 113.507C364.428 114.399 359.945 114.395 355.659 113.495C350.532 112.398 345.785 109.423 342.778 105.094C339.249 100.078 338.246 93.7001 338.694 87.6891C338.997 82.5891 340.583 77.4491 343.841 73.449C347.408 68.968 352.88 66.324 358.499 65.615ZM361.824 74.4651C359.159 74.6131 356.465 75.515 354.489 77.3591C351.764 79.8281 350.519 83.506 350.182 87.082C349.81 91.015 350.079 95.161 351.876 98.746C353.272 101.53 355.839 103.717 358.864 104.512C361.837 105.283 365.072 105.218 367.952 104.112C370.413 103.153 372.364 101.127 373.43 98.731C375.039 95.176 375.198 91.179 375 87.343C374.724 83.836 373.728 80.1621 371.15 77.6291C368.742 75.1921 365.175 74.2451 361.824 74.4651ZM447.369 65.599C452.933 64.91 458.841 65.2831 463.919 67.8481C468.348 70.0621 471.781 74.063 473.495 78.688C474.837 82.227 475.308 86.048 475.229 89.8161C475.239 95.4451 473.719 101.223 470.186 105.688C466.879 110.011 461.82 112.82 456.478 113.702C451.255 114.547 445.736 114.328 440.773 112.374C435.745 110.396 431.565 106.357 429.446 101.384C427.239 96.316 427.006 90.612 427.694 85.197C428.415 79.78 430.868 74.4861 435.048 70.8851C438.473 67.8791 442.882 66.176 447.369 65.599ZM450.379 74.474C447.294 74.647 444.235 75.976 442.241 78.378C440.055 80.952 439.116 84.348 438.862 87.658C438.6 91.076 438.862 94.616 440.184 97.811C441.284 100.493 443.372 102.824 446.064 103.964C448.561 105.039 451.373 105.23 454.041 104.831C456.528 104.465 458.937 103.277 460.557 101.326C462.163 99.385 463.011 96.938 463.438 94.486C463.978 91.194 463.984 87.804 463.346 84.528C462.78 81.735 461.544 78.9611 459.311 77.1091C456.891 74.982 453.528 74.255 450.379 74.474Z"
        fill="#787878" />
    <path fill-rule="evenodd" clip-rule="evenodd"
        d="M26.0879 83.1809C43.2729 83.1869 60.4579 83.1789 77.6429 83.1869C77.6459 100.372 77.6429 117.554 77.6429 134.739H26.0879V83.1809Z"
        fill="#00A1F1" />
    <path fill-rule="evenodd" clip-rule="evenodd"
        d="M82.91 83.187C100.092 83.181 117.277 83.184 134.462 83.184V134.739H82.907C82.91 117.554 82.904 100.369 82.91 83.187Z"
        fill="#FFBB00" />
</svg>