<svg width="150" height="0" viewBox="0 0 813 125" fill="none" xmlns="http://www.w3.org/2000/svg">
    <path
        d="M569.29 55.1901C575.54 56.1201 581.16 57.09 586.82 57.74C588.45 57.92 590.2 57.13 591.91 56.92C596.52 56.36 602 54.2801 605.58 55.7101C612.85 58.6301 618.58 57.47 625.82 55.6C637.59 52.55 645.27 58.5401 645.66 69.2501C645.72 70.9901 645.85 72.7301 646.05 76.1401C655.83 68.1401 667.26 69.7201 678.2 68.9401C680.35 68.7801 684.02 67.2001 684.12 66.0801C684.5 62.1401 680.38 62.7101 677.54 62.7601C675.26 62.7601 672.47 63.0601 670.84 64.2001C664.65 68.5701 658.09 65.8301 651.62 66.5701C651.15 59.4801 656.09 56.5701 661.41 56.1501C672.137 55.2301 682.923 55.2301 693.65 56.1501C701.86 56.9701 704.65 61.1501 704.83 68.6601C705.02 75.6601 704.83 82.6601 704.83 90.1601C702.175 90.4786 699.504 90.6322 696.83 90.6201C688.857 90.0562 680.846 90.4592 672.97 91.8201C663.56 93.4701 653.97 92.4401 646.77 85.3701C643.27 95.1201 634.63 88.3101 627.27 92.3201V74.0701C627.27 70.6901 627.14 67.21 621.82 67.24C616.66 67.24 616.19 70.62 616.17 74.05C616.17 79.28 616.17 84.5 616.17 90.17H597.73C597.73 84.86 597.79 79.4401 597.73 74.0301C597.73 71.1901 598.41 67.63 593.52 67.29C588.34 66.93 587.52 70.2201 587.52 73.7101C587.52 78.9601 587.52 84.21 587.52 90.04H569.3L569.29 55.1901ZM685.82 75.1901C680.66 75.6801 675.45 76 670.34 76.79C669.1 76.98 667.73 78.55 667.27 79.79C667 80.48 668.27 82.39 669.12 82.49C672.68 82.93 676.42 83.4401 679.89 82.9101C683.59 82.2901 686.73 80.3801 685.82 75.2001V75.1901Z"
        fill="#335AAA" />
    <path
        d="M191.59 45.6401C206.16 45.6401 219.72 45.4601 233.28 45.6401C249.17 45.9101 253.46 49.6401 254.71 64.7701C265.54 54.5301 278.78 53.43 292.71 55.36C306.36 57.25 312.21 63.36 312.71 76.63H273.04C277.9 83.15 281.84 84.0101 289.56 82.3901C296.56 80.9201 303.83 80.39 311.76 79.3C311.15 85.8 306.85 87.7301 302.51 89.2001C290.594 93.3301 277.631 93.3054 265.73 89.1301C257.73 86.3901 255.42 82.84 253.14 72.31C246.57 73.73 240.07 75.6901 233.4 76.4001C226.73 77.1101 219.93 76.55 212.82 76.55C212.44 81.55 212.12 85.83 211.77 90.35H191.59V45.6401ZM211.96 56.2101C212.31 60.1601 212.55 62.89 212.8 65.85C217.52 65.85 221.22 65.85 224.92 65.85C228.62 65.85 231.92 65.21 232.09 61.29C232.28 56.74 228.39 56.34 224.49 56.29C220.83 56.13 217.16 56.2101 211.96 56.2101ZM272.62 68.5H294.01C286.88 61.29 281.63 61.13 272.62 68.5Z"
        fill="black" />
    <path
        d="M803.89 56.64L785.66 69.13L812.82 98.42C804.82 98.42 798.19 98.83 791.73 98.2C789.27 97.97 786.73 95.61 784.91 93.75C781.03 89.9 777.57 85.75 772.84 80.47C771.61 84.95 770.84 87.63 770.08 90.47H752.38V69.59C743.87 69.22 734.99 66.02 730.48 72.21C727.07 76.9 727.9 83.89 726.78 90.21H709.65V56.34C716.52 56.46 723.28 53.48 728.08 58.72L751.85 53.89C752.03 51.81 752.35 48.37 752.7 44.48H770.61C770.94 49.95 771.26 55.33 771.61 61.01C783.65 55.05 784.56 54.92 803.89 56.64Z"
        fill="#335AAA" />
    <path
        d="M447.24 56.4001C448.34 59.1401 449.24 61.4801 450.69 65.0501C462.88 53.1601 477.76 53.7001 492.61 55.6201C505.3 57.2601 511.4 64.7501 510.17 75.5401C509.24 83.7601 505 88.6901 495.64 90.4501C479.73 93.4501 464.07 94.1201 450.64 81.5101C449.26 85.0201 448.27 87.5101 447.18 90.3501H430.38V56.3501L447.24 56.4001ZM490.9 73.7201C491.07 68.2801 487.56 65.2401 480.9 65.1101C474.24 64.9801 470.37 67.9901 470.27 73.1901C470.16 78.7101 473.55 81.6001 480.27 81.7201C486.99 81.8401 490.73 79.1301 490.9 73.7201Z"
        fill="black" />
    <path
        d="M371.61 80.3C379.81 80.49 388.13 78.3 396.13 82.57C398.22 83.69 401.8 82.74 404.69 82.74C404.91 82.15 405.13 81.56 405.36 80.96C403.36 80.1 401.43 78.78 399.31 78.46C393.98 77.65 388.53 77.46 383.17 76.71C376.42 75.82 372.8 72.82 372.17 68C371.48 62.72 373.63 59 380.06 57.09C392.104 53.4824 404.948 53.538 416.96 57.25C420.96 58.5 424.96 60.66 424.29 66.04C416.72 66.4 409.35 68.1 401.85 64.49C399.29 63.25 395.27 64.29 391.91 64.29L391.73 66.69C394.17 67.14 396.58 67.74 399.04 68C405.1 68.63 411.24 68.82 417.25 69.73C422.66 70.55 426.6 73.33 427.18 78.44C427.68 82.87 426.06 86.99 421.18 88.7C407.074 93.6847 391.686 93.6847 377.58 88.7C374.58 87.7 372.76 84.33 370.4 82.06L371.61 80.3Z"
        fill="black" />
    <path
        d="M513.91 55.3C520.39 56.14 525.91 56.9501 531.41 57.4901C533.2 57.6701 535.08 57.1501 536.93 56.9501C541.93 56.4001 546.93 55.1601 551.87 55.4501C559.87 55.9401 564.59 60.59 565.36 67.54C565.55 70.1755 565.6 72.8193 565.51 75.4601C565.51 80.1201 565.51 84.7801 565.51 90.0201H546.9C546.9 84.9101 546.84 79.7001 546.9 74.4901C546.97 70.1001 545.5 66.79 539.59 66.98C534.2 67.16 531.83 70.0401 531.8 74.5101C531.8 79.5101 531.8 84.4501 531.8 90.0201H513.89L513.91 55.3Z"
        fill="black" />
    <path
        d="M368.65 90.24H350.29C350.29 85.02 350.39 80.13 350.29 75.24C350.13 69.24 347.88 66.78 342.87 66.88C337.86 66.98 335.29 69.4801 334.97 75.2801C334.7 80.1801 334.91 85.1001 334.91 90.2801H317.01V56.6501C319.15 56.4501 321.68 56.0901 324.23 56.0101C332.23 55.7501 340.05 57.01 348.37 55.54C361.37 53.28 369.91 60.34 368.8 71.23C368.14 77.27 368.65 83.41 368.65 90.24Z"
        fill="black" />
    <path
        d="M105.12 66.5701C119.885 67.1342 134.515 63.5744 147.37 56.29C153.37 73.51 159.19 90.2901 165.02 107.09L163.73 108.13L104.53 68.3C104.73 67.73 104.92 67.1301 105.12 66.5701Z"
        fill="#335AAA" />
    <path
        d="M150.06 20.2801C192.7 4.70007 237.46 -0.559916 283.57 0.700084C261.17 3.00008 238.57 4.26008 216.43 7.91008C194.29 11.5601 172.55 17.6201 150.64 22.6201L150.06 20.2801Z"
        fill="#FCBF5C" />
    <path
        d="M13.9401 55.8701C27.4501 50.7001 40.9401 45.4901 54.4801 40.4001C56.6793 39.679 58.9201 39.0913 61.1901 38.6401C63.2601 44.8301 65.1901 50.7101 67.3101 56.8901H13.8501L13.9401 55.8701Z"
        fill="#FCBF5C" />
    <path
        d="M135.21 26.6799C149.3 26.6799 162.06 26.6799 174.83 26.6799C176.307 26.9018 177.764 27.2361 179.19 27.6799L152.26 42.47L165.6 52.22L150.95 53.39C158.61 38.9 146.39 33.5899 135.21 26.6799Z"
        fill="#335AAA" />
    <path d="M65.8199 65.52C41.4599 83.25 19.1399 102.67 0.159912 124.9C7.03991 108.31 51.9099 67.38 65.8199 65.52Z"
        fill="#335AAA" />
    <path d="M109.94 22.4099L81.1399 26.6499L84.2499 6.12988L109.94 22.4099Z" fill="#FCBF5C" />
    <path d="M93.22 65.88L77.22 75.88V61.25L93.22 65.88Z" fill="#335AAA" />
    <path d="M60.95 29.8101H72.64C66.9 36.6401 66.9 36.6401 60.95 29.8101Z" fill="#FCBF5C" />
    <path d="M118.9 23.4901C123.46 20.4901 127.36 18.5701 129.74 25.7601L118.9 23.4901Z" fill="#FCBF5C" />
</svg>