<svg width="150" height="0" viewBox="0 0 468 90" fill="none" xmlns="http://www.w3.org/2000/svg">
    <path
        d="M97.6596 56.4235H91.8008V44.272H97.6596V56.4235ZM377.993 58.0423H372.422V25.645H377.993V58.0423ZM315.179 36.0862H309.592V25.645H315.179V36.0862ZM218.255 31.5865V16.1088H209.256V0H182.615V16.1088H161.641L153.632 44.4604L145.895 16.1088H120.152L140.584 69.8398L133.112 90H159.211L182.52 28.9798V70.1054H209.253V31.5865H218.255ZM467.807 70.1054V30.2417C467.807 25.7363 465.917 21.8676 462.142 18.6327C458.539 15.5663 454.582 14.0416 450.176 14.1273C442.882 14.2186 437.485 16.1944 433.971 19.9746L433.876 14.9324H408.42V70.1025H434.876V31.5865H440.36V70.1054H467.807ZM123.573 70.1054V34.6444C123.573 27.6293 120.786 22.2302 115.39 18.3586C110.345 14.7583 103.87 12.9595 95.858 13.0509C86.4988 13.1394 79.2068 15.0295 73.8991 18.6356C69.308 21.6877 67.0553 25.3823 67.0553 29.7906V32.2261H92.0749V25.645H97.6625V35.9007L84.88 36.1776C71.7463 36.4403 65.0766 41.6652 64.9938 51.7496C64.8083 64.5264 70.6585 70.9162 82.4474 70.9162C89.5538 70.9162 94.9558 68.3009 98.6475 62.9989L98.7417 70.1054H123.573ZM342.983 41.9336C342.806 32.6658 340.827 25.8248 337.135 21.5078C332.367 15.8404 324.182 13.0509 312.481 13.0509C302.577 13.0509 295.462 14.4899 291.145 17.4535C284.935 21.6849 281.877 29.8791 281.877 41.9336C281.877 53.7254 285.117 61.8283 291.596 66.2395C296.007 69.3002 302.933 70.8249 312.384 70.9191C321.475 71.0076 328.399 69.5686 333.175 66.4136C337.398 63.6299 340.37 59.2187 341.995 53.28C342.263 52.1093 342.44 51.1186 342.534 50.2249H315.265V58.0452H309.595V45.177H342.803C342.9 44.0064 342.983 42.9272 342.983 41.9336V41.9336ZM405.707 41.9336C405.707 29.9734 402.647 21.9561 396.531 17.6391C392.3 14.6641 385.19 13.0509 375.197 13.0509C365.21 13.0509 358.101 14.5813 353.869 17.5506C347.845 21.8704 344.781 29.9734 344.781 41.9336C344.781 54.088 347.842 62.1852 353.869 66.4108C358.098 69.383 365.21 70.9162 375.197 70.9162C385.102 70.9162 392.205 69.4772 396.531 66.4108C402.647 62.0938 405.707 53.9024 405.707 41.9336V41.9336ZM62.744 18.7212C62.9239 13.502 61.2051 9.0908 57.9673 5.49331C54.6411 1.79874 50.2242 0 44.5567 0H0.193359V70.1054H28.2709V44.0064H34.478V70.1054H62.6498V47.9694C62.6498 44.0064 61.9274 41.1284 60.3971 39.2383C58.2443 36.5374 55.9944 34.8243 53.7388 34.0191C56.7939 32.2204 58.9581 30.4188 60.1287 28.6172C61.6562 26.2788 62.5555 22.944 62.744 18.7212V18.7212ZM280.172 70.1054V28.9769C280.172 24.7513 278.55 21.2366 275.393 18.3558C272.252 15.5663 268.466 14.1273 264.058 14.1273C260.906 14.1273 257.762 14.664 254.607 15.7462C251.455 16.8254 249.12 18.1759 247.589 19.7062V0H220.771V70.1054H247.589V31.5865H253.168V70.1054H280.172ZM34.5722 28.7028H28.4479V13.4021H34.5751V28.7028H34.5722Z"
        fill="#E31937" />
</svg>