<svg width="24" height="19" viewBox="0 0 24 19" fill="none" xmlns="http://www.w3.org/2000/svg">
    <path fill-rule="evenodd" clip-rule="evenodd"
        d="M21.15 2.92308C22.2 2.77692 23.1 2.63077 24 2.19231C23.4 3.21538 22.5 4.09231 21.45 4.67692C21.75 11.5462 16.65 19 7.5 19C4.8 19 2.25 18.1231 0 16.8077C2.55 17.1 5.25 16.3692 7.05 15.0538C4.8 15.0538 3 13.5923 2.4 11.6923C3.15 11.8385 3.9 11.6923 4.65 11.5462C2.4 10.9615 0.75 8.91539 0.75 6.72308C1.5 7.01538 2.25 7.30769 3 7.30769C0.900001 5.84615 0.150001 3.06923 1.5 0.876924C4.05 3.8 7.65 5.7 11.7 5.84615C10.95 2.92308 13.35 0 16.5 0C17.85 0 19.2 0.584615 20.1 1.46154C21.3 1.16923 22.35 0.876922 23.25 0.292307C22.95 1.46154 22.2 2.33846 21.15 2.92308Z"
        fill="white" />
</svg>