<svg width="100%" height="200px" viewBox="0 0 303 201" fill="none" xmlns="http://www.w3.org/2000/svg">
    <path
        d="M137.2 183.18L29.1084 122.557C21.4199 118.253 22.3821 110.724 31.264 105.746L135.035 47.5582C143.917 42.5894 157.333 42.0413 165.021 46.3541L273.113 106.959C280.792 111.272 279.83 118.792 270.958 123.77L167.177 181.958C158.304 186.954 144.879 187.493 137.2 183.18Z"
        fill="url(#paint0_radial_59_171652)" />
    <path
        d="M150.511 152.748C147.395 152.835 144.309 152.145 141.546 150.744L70.0736 110.67C67.6311 109.296 66.2803 107.373 66.2803 105.279C66.2803 102.763 68.1307 100.248 71.4985 98.3877L140.121 59.9133C146.181 56.5169 155.396 56.1575 160.661 59.1136L232.142 99.1874C234.585 100.562 235.926 102.494 235.926 104.578C235.926 107.103 234.076 109.61 230.717 111.47L162.095 149.944C158.541 151.819 154.555 152.783 150.511 152.748ZM142.258 149.54C147.143 152.236 155.711 151.912 161.373 148.741L230.005 110.266C232.855 108.658 234.501 106.591 234.501 104.578C234.501 102.961 233.41 101.461 231.43 100.355L159.948 60.2727C155.072 57.5771 146.496 57.9006 140.833 61.0724L72.2108 99.5468C69.3519 101.155 67.7143 103.231 67.7143 105.234C67.7143 106.852 68.8061 108.352 70.786 109.466L142.258 149.54Z"
        fill="#DCE0EF" />
    <path
        d="M150.05 200.001C144.064 200.001 138.346 198.824 134.081 196.407L6.754 125.038C2.39628 122.603 0 119.162 0 115.37C0 110.877 3.38626 106.385 9.25207 103.087L131.5 34.5485C142.288 28.4925 158.71 27.8546 168.101 33.1289L295.428 104.516C299.776 106.951 302.173 110.392 302.173 114.193C302.173 118.686 298.786 123.178 292.921 126.467L170.673 195.005C164.798 198.312 157.23 200.001 150.05 200.001ZM135.358 194.287C144.045 199.157 159.311 198.519 169.396 192.867L291.653 124.355C296.742 121.498 299.656 117.805 299.656 114.229C299.656 111.354 297.713 108.676 294.188 106.699L166.861 35.3033C158.173 30.4423 142.898 31.0713 132.813 36.7319L10.5658 105.235C5.47721 108.092 2.55358 111.785 2.55358 115.37C2.55358 118.245 4.50575 120.914 8.03079 122.9L135.358 194.287Z"
        fill="url(#paint1_linear_59_171652)" />
    <path
        d="M30.7185 105.998L134.962 47.5495C143.881 42.5538 157.361 42.0057 165.086 46.3365L273.696 107.22C277.194 109.179 278.915 111.802 278.915 114.552V94.3352C278.915 91.5858 277.194 88.9441 273.696 86.9943L165.123 26.1199C157.398 21.7891 143.918 22.3372 134.999 27.3329L30.7185 85.7813C25.8427 88.4769 23.3169 92.017 23.3169 95.3326V115.558C23.3447 112.234 25.8427 108.738 30.7185 105.998Z"
        fill="url(#paint2_linear_59_171652)" />
    <path
        d="M271.5 103.285L167.294 161.742C158.375 166.738 144.895 167.277 137.179 162.955L28.5132 102.072C25.016 100.113 23.3043 97.4892 23.3043 94.7397V114.956C23.3043 117.706 25.016 120.347 28.5132 122.288L137.096 183.172C144.812 187.502 158.292 186.954 167.211 181.958L271.463 123.51C276.339 120.815 278.865 117.274 278.865 113.95V93.7334C278.874 97.0579 276.376 100.553 271.5 103.285Z"
        fill="url(#paint3_linear_59_171652)" />
    <path
        d="M150.216 165.569C145.155 165.569 140.316 164.59 136.708 162.586L29.0694 102.97C25.3685 100.93 23.3608 98.0548 23.3608 94.883C23.3608 91.1362 26.2197 87.3983 31.2066 84.6309L134.561 27.3865C143.684 22.3278 157.571 21.7977 165.5 26.2004L273.148 85.826C276.849 87.8566 278.857 90.7319 278.857 93.9126C278.857 97.6684 275.989 101.397 271.002 104.165L167.647 161.409C162.29 164.2 156.294 165.631 150.216 165.569ZM137.79 160.798C145.137 164.859 158.043 164.329 166.574 159.612L269.929 102.368C274.231 99.9776 276.701 96.8957 276.701 93.9036C276.701 91.5046 275.054 89.2673 272.075 87.614L164.427 27.9885C157.081 23.9272 144.165 24.4573 135.644 29.1745L32.2891 86.428C27.9869 88.809 25.5166 91.891 25.5166 94.883C25.5166 97.291 27.1635 99.5194 30.1426 101.173L137.79 160.798Z"
        fill="url(#paint4_linear_59_171652)" />
    <g style="mix-blend-mode:multiply" opacity="0.5">
        <path d="M90.411 103.707L151.105 137.743L211.807 103.707L151.105 69.6717L90.411 103.707Z" fill="#999999" />
    </g>
    <path
        d="M137.182 139.86L28.9601 79.2107C25.4813 77.2519 23.7697 74.6372 23.7697 71.8968C23.7697 68.5902 26.2585 65.104 31.1158 62.3815L135.017 4.12175C143.908 -0.85603 157.342 -1.40413 165.04 2.90874L273.289 63.5855C276.777 65.5443 278.479 68.159 278.479 70.8994C278.479 74.206 275.99 77.6922 271.133 80.4237L167.232 138.674C158.313 143.634 144.87 144.173 137.182 139.86Z"
        fill="url(#paint5_linear_59_171652)" />
    <path
        d="M271.096 78.2408L167.196 136.492C158.314 141.478 144.87 142.017 137.182 137.705L28.9328 77.0278C25.8149 75.2757 24.1957 72.9845 23.8812 70.5585C23.7897 70.9902 23.7433 71.4296 23.7424 71.8703C23.7424 74.6108 25.4541 77.2614 28.9328 79.1843L137.182 139.861C144.87 144.174 158.314 143.626 167.196 138.648L271.096 80.3883C275.954 77.6927 278.443 74.1795 278.443 70.873C278.418 70.589 278.375 70.3069 278.313 70.0284C277.749 72.9216 275.315 75.8687 271.096 78.2408Z"
        fill="#DCE0EF" />
    <path opacity="0.8"
        d="M150.524 116.777C147.469 116.862 144.443 116.184 141.734 114.81L72.0012 75.7241C69.5865 74.3764 68.3004 72.4625 68.3004 70.333C68.3004 67.8352 70.1508 65.3553 73.4353 63.5223L140.365 26.0002C146.305 22.6667 155.335 22.3253 160.497 25.2185L230.202 64.304C232.617 65.6608 233.903 67.5656 233.903 69.6951C233.903 72.193 232.053 74.6729 228.768 76.4969L161.848 114.019C158.376 115.859 154.479 116.809 150.524 116.777ZM151.68 24.8052C148.001 24.774 144.375 25.6522 141.142 27.357L74.2218 64.888C71.4461 66.4335 69.8825 68.4192 69.8825 70.351C69.8825 71.8875 70.928 73.3161 72.8247 74.3854L142.539 113.471C147.258 116.112 155.575 115.771 161.043 112.689L227.973 75.1671C230.748 73.6216 232.303 71.6269 232.303 69.7041C232.303 68.1676 231.257 66.73 229.36 65.6697L159.655 26.5843C157.195 25.3439 154.451 24.7317 151.68 24.8052Z"
        fill="url(#paint6_linear_59_171652)" />
    <path
        d="M271.096 80.8904L167.196 139.15C158.314 144.128 144.87 144.667 137.182 140.354L28.9328 79.6774C25.4541 77.7276 23.7424 75.113 23.7424 72.3725V92.5262C23.7424 95.2667 25.4541 97.9173 28.9328 99.8312L137.182 160.508C144.87 164.821 158.314 164.282 167.196 159.295L271.096 101.044C275.954 98.3486 278.443 94.8264 278.443 91.5199V71.3751C278.443 74.7176 275.954 78.1679 271.096 80.8904Z"
        fill="url(#paint7_linear_59_171652)" />
    <path
        d="M271.096 98.8877L167.196 157.147C158.314 162.125 144.87 162.664 137.182 158.351L28.9328 97.6747C25.8149 95.9315 24.1957 93.6403 23.8812 91.2143C23.7893 91.6459 23.7428 92.0855 23.7424 92.5262C23.7424 95.2666 25.4541 97.9173 28.9328 99.8311L137.182 160.508C144.87 164.821 158.314 164.282 167.196 159.295L271.096 101.044C275.954 98.3485 278.443 94.8264 278.443 91.5198C278.418 91.236 278.374 90.9539 278.313 90.6752C277.749 93.5864 275.315 96.5246 271.096 98.8877Z"
        fill="#494D5D" />
    <defs>
        <radialGradient id="paint0_radial_59_171652" cx="0" cy="0" r="1" gradientUnits="userSpaceOnUse" gradientTransform="translate(151.106 114.776) scale(103.845 100.849)">
            <stop stop-color="#282C3D" />
            <stop offset="0.99" stop-color="#595D6E" />
        </radialGradient>
        <linearGradient id="paint1_linear_59_171652" x1="137.486" y1="31.26" x2="163.211" y2="198.527" gradientUnits="userSpaceOnUse">
            <stop stop-color="#F4AD33" />
            <stop offset="0.7" stop-color="#F69124" />
            <stop offset="1" stop-color="#F7831D" />
        </linearGradient>
        <linearGradient id="paint2_linear_59_171652" x1="278.868" y1="69.3744" x2="-60.035" y2="69.3744" gradientUnits="userSpaceOnUse">
            <stop offset="0.01" stop-color="#696D7E" />
            <stop offset="1" stop-color="#282C3D" />
        </linearGradient>
        <linearGradient id="paint3_linear_59_171652" x1="243677" y1="62835.9" x2="337289" y2="62835.9" gradientUnits="userSpaceOnUse">
            <stop offset="0.01" stop-color="#696D7E" />
            <stop offset="1" stop-color="#282C3D" />
        </linearGradient>
        <linearGradient id="paint4_linear_59_171652" x1="6.16124" y1="85.5474" x2="437.881" y2="113.483" gradientUnits="userSpaceOnUse">
            <stop stop-color="#DCE0EF" />
            <stop offset="0.35" stop-color="#C0C4D3" />
            <stop offset="0.58" stop-color="#ABAFBE" />
            <stop offset="1" stop-color="#494D5D" />
        </linearGradient>
        <linearGradient id="paint5_linear_59_171652" x1="-20.7421" y1="48.9038" x2="237.761" y2="84.7437" gradientUnits="userSpaceOnUse">
            <stop offset="0.01" stop-color="#595D6E" />
            <stop offset="1" stop-color="#282C3D" />
        </linearGradient>
        <linearGradient id="paint6_linear_59_171652" x1="165999" y1="38536.6" x2="195649" y2="38536.6" gradientUnits="userSpaceOnUse">
            <stop stop-color="#F4AD33" />
            <stop offset="0.7" stop-color="#F69124" />
            <stop offset="1" stop-color="#F7831D" />
        </linearGradient>
        <linearGradient id="paint7_linear_59_171652" x1="242975" y1="42826.1" x2="335961" y2="42826.1" gradientUnits="userSpaceOnUse">
            <stop offset="0.01" stop-color="#696D7E" />
            <stop offset="1" stop-color="#282C3D" />
        </linearGradient>
    </defs>
</svg>