<svg width="160" height="200" viewBox="0 0 160 200" fill="none" xmlns="http://www.w3.org/2000/svg">
    <path
        d="M72.6474 190.891L15.4129 158.169C11.3418 155.845 11.8513 151.781 16.5543 149.094L71.5011 117.686C76.2041 115.004 83.3076 114.708 87.3787 117.036L144.613 149.749C148.679 152.077 148.17 156.136 143.472 158.823L88.5201 190.232C83.822 192.928 76.7136 193.219 72.6474 190.891Z"
        fill="url(#paint0_radial_59_171516)" />
    <path
        d="M79.6954 174.483C78.0457 174.53 76.4113 174.158 74.9483 173.401L37.1038 151.771C35.8105 151.029 35.0953 149.991 35.0953 148.861C35.0953 147.503 36.0751 146.145 37.8583 145.141L74.1939 124.373C77.4027 122.54 82.2821 122.346 85.0696 123.942L122.919 145.572C124.212 146.315 124.923 147.357 124.923 148.482C124.923 149.845 123.943 151.198 122.165 152.202L85.8289 172.97C83.9473 173.981 81.8365 174.502 79.6954 174.483ZM75.3255 172.752C77.9122 174.207 82.4486 174.032 85.4468 172.32L121.787 151.552C123.296 150.684 124.168 149.569 124.168 148.482C124.168 147.609 123.59 146.799 122.542 146.203L84.6924 124.567C82.1106 123.112 77.5693 123.287 74.5711 124.999L38.2355 145.766C36.7217 146.635 35.8546 147.755 35.8546 148.836C35.8546 149.709 36.4327 150.519 37.4811 151.121L75.3255 172.752Z"
        fill="#DCE0EF" />
    <path
        d="M79.4514 200C76.2817 200 73.2542 199.365 70.9958 198.06L3.57624 159.537C1.26883 158.223 0 156.365 0 154.318C0 151.893 1.79302 149.468 4.89896 147.689L69.629 110.693C75.3412 107.424 84.0368 107.08 89.0092 109.927L156.429 148.46C158.731 149.774 160 151.632 160 153.683C160 156.108 158.207 158.533 155.101 160.308L90.3712 197.303C87.2603 199.088 83.253 200 79.4514 200ZM71.6718 196.915C76.2719 199.544 84.3552 199.2 89.6951 196.149L154.43 159.168C157.124 157.626 158.668 155.633 158.668 153.702C158.668 152.151 157.639 150.705 155.772 149.638L88.3528 111.101C83.7527 108.477 75.6645 108.816 70.3246 111.872L5.59461 148.848C2.90018 150.39 1.35212 152.383 1.35212 154.318C1.35212 155.87 2.38579 157.311 4.2523 158.383L71.6718 196.915Z"
        fill="url(#paint1_linear_59_171516)" />
    <path
        d="M16.2654 149.226L71.462 117.677C76.1846 114.981 83.3224 114.685 87.413 117.023L144.922 149.886C146.774 150.943 147.685 152.359 147.685 153.843V142.931C147.685 141.447 146.774 140.021 144.922 138.968L87.4326 106.11C83.342 103.772 76.2042 104.068 71.4816 106.765L16.2654 138.314C13.6837 139.769 12.3463 141.68 12.3463 143.469V154.386C12.3609 152.592 13.6837 150.705 16.2654 149.226Z"
        fill="url(#paint2_linear_59_171516)" />
    <path
        d="M143.76 147.768L88.5833 179.322C83.8606 182.018 76.7228 182.309 72.6371 179.977L15.0988 147.113C13.247 146.056 12.3407 144.64 12.3407 143.156V154.068C12.3407 155.552 13.247 156.978 15.0988 158.026L72.593 190.889C76.6788 193.227 83.8166 192.931 88.5392 190.234L143.741 158.685C146.322 157.23 147.66 155.319 147.66 153.525V142.613C147.665 144.407 146.342 146.294 143.76 147.768Z"
        fill="url(#paint3_linear_59_171516)" />
    <path
        d="M79.5381 181.377C76.8584 181.377 74.2962 180.849 72.3856 179.767L15.3911 147.588C13.4315 146.487 12.3684 144.935 12.3684 143.223C12.3684 141.2 13.8822 139.183 16.5227 137.689L71.2491 106.79C76.0794 104.06 83.4328 103.773 87.6312 106.15L144.631 138.334C146.59 139.43 147.653 140.982 147.653 142.699C147.653 144.726 146.135 146.739 143.494 148.233L88.7677 179.132C85.9314 180.638 82.7566 181.41 79.5381 181.377ZM72.9588 178.802C76.8486 180.994 83.6826 180.708 88.1994 178.162L142.926 147.263C145.204 145.973 146.512 144.309 146.512 142.694C146.512 141.399 145.64 140.192 144.062 139.299L87.0629 107.115C83.1731 104.923 76.3342 105.209 71.8223 107.755L17.0959 138.659C14.8179 139.944 13.5099 141.608 13.5099 143.223C13.5099 144.523 14.3819 145.725 15.9594 146.618L72.9588 178.802Z"
        fill="url(#paint4_linear_59_171516)" />
    <g style="mix-blend-mode:overlay">
        <path d="M82.9845 50.7875L124.925 74.7608V122.702L82.9845 98.7291V50.7875Z" fill="#CCD0DF" />
    </g>
    <g opacity="0.5">
        <g opacity="0.75">
            <path opacity="0.75" d="M55.305 106.7L72.7159 96.7478V97.5529L55.305 107.505V106.7Z" fill="#696D7E" />
            <path opacity="0.75" d="M59.2682 102.557L72.7158 94.8697V95.6748L59.2682 103.362V102.557Z" fill="#696D7E" />
            <path opacity="0.75" d="M56.4406 102.372L72.715 93.0697V93.8747L56.4406 103.177V102.372Z" fill="#696D7E" />
            <path opacity="0.75" d="M59.2682 98.956L72.7158 91.2689V92.0739L59.2682 99.7611V98.956Z" fill="#696D7E" />
            <path opacity="0.75" d="M62.1334 95.4337L72.7152 89.3907V90.1958L62.1334 96.2388V95.4337Z" fill="#696D7E" />
            <path opacity="0.75" d="M59.2682 89.7951L72.7158 82.1079V82.913L59.2682 90.6001V89.7951Z" fill="#696D7E" />
            <path opacity="0.75" d="M57.2206 89.0858L72.716 80.2298V81.0349L57.2206 89.8909V89.0858Z" fill="#696D7E" />
            <path opacity="0.75" d="M59.2682 86.1146L72.7158 78.4275V79.2325L59.2682 86.9197V86.1146Z" fill="#696D7E" />
            <path opacity="0.75" d="M62.1334 82.6745L72.7152 76.6267V77.4317L62.1334 83.4796V82.6745Z" fill="#696D7E" />
            <path opacity="0.75" d="M56.4406 96.8898L72.715 87.5876V88.3927L56.4406 97.6949V96.8898Z" fill="#696D7E" />
            <path opacity="0.75" d="M59.2682 93.3958L72.7158 85.7087V86.5138L59.2682 94.2009V93.3958Z" fill="#696D7E" />
            <path opacity="0.75" d="M55.305 84.7006L72.7159 74.7485V75.5536L55.305 85.5057V84.7006Z" fill="#696D7E" />
            <path opacity="0.75" d="M59.2682 80.6357L72.7158 72.9485V73.7536L59.2682 81.4408V80.6357Z" fill="#696D7E" />
            <path opacity="0.75" d="M56.4406 80.4499L72.715 71.1478V71.9529L56.4406 81.255V80.4499Z" fill="#696D7E" />
            <path opacity="0.75" d="M59.2682 76.9519L72.7158 69.2696V70.0699L59.2682 77.757V76.9519Z" fill="#696D7E" />
            <path opacity="0.75" d="M62.1334 73.5144L72.7152 67.4665V68.2716L62.1334 74.3195V73.5144Z" fill="#696D7E" />
            <path opacity="0.75" d="M56.4406 74.8898L72.715 65.5876V66.3927L56.4406 75.6949V74.8898Z" fill="#696D7E" />
            <path opacity="0.75" d="M59.2682 69.6747L72.7158 61.9876V62.7927L59.2682 70.4798V69.6747Z" fill="#696D7E" />
            <path opacity="0.75" d="M62.1334 66.1525L72.7152 60.1095V60.9146L62.1334 66.9576V66.1525Z" fill="#696D7E" />
            <path opacity="0.75" d="M56.4406 67.606L72.715 58.3087V59.1089L56.4406 68.4111V67.606Z" fill="#696D7E" />
            <path opacity="0.75" d="M59.2682 71.4747L72.7158 63.7876V64.5927L59.2682 72.2798V71.4747Z" fill="#696D7E" />
            <path opacity="0.75" d="M62.1334 89.9566L72.7152 83.9087V84.7138L62.1334 90.7617V89.9566Z" fill="#696D7E" />
            <path opacity="0.75"
                d="M43.0718 104.059C43.843 102.993 44.8267 102.095 45.9622 101.421C48.7742 99.8103 51.0571 101.115 51.0571 104.33C51.0571 107.546 48.7742 111.46 45.9622 113.06C43.1502 114.661 40.8624 113.361 40.8624 110.15L45.9622 107.24L43.0718 104.059Z"
                fill="#696D7E" />
            <path opacity="0.75"
                d="M50.7827 88.7665C50.9668 89.3152 51.0563 89.8907 51.0472 90.4688C51.0472 93.6843 48.7643 97.5982 45.9523 99.1986C43.1403 100.799 40.8525 99.4993 40.8525 96.2887L45.9523 93.3788L50.7827 88.7665Z"
                fill="#696D7E" />
            <path opacity="0.75"
                d="M46.6289 73.3138C49.1225 72.2662 51.038 73.6048 51.038 76.5632C51.038 79.7787 48.7551 83.6926 45.9431 85.2931C44.2481 86.2631 42.749 86.1757 41.8231 85.2543L45.9431 79.4683L46.6289 73.3138Z"
                fill="#696D7E" />
        </g>
        <g opacity="0.75">
            <path opacity="0.75" d="M113.12 104.891L130.531 114.839V115.648L113.12 105.696V104.891Z" fill="#696D7E" />
            <path opacity="0.75" d="M117.083 105.327L130.531 113.01V113.815L117.083 106.128V105.327Z" fill="#696D7E" />
            <path opacity="0.75" d="M114.256 101.873L130.531 111.176V111.981L114.256 102.678V101.873Z" fill="#696D7E" />
            <path opacity="0.75" d="M117.083 101.666L130.531 109.353V110.158L117.083 102.471V101.666Z" fill="#696D7E" />
            <path opacity="0.75" d="M119.949 101.474L130.531 107.522V108.327L119.949 102.279V101.474Z" fill="#696D7E" />
            <path opacity="0.75" d="M117.083 92.5179L130.531 100.205V101.01L117.083 93.323V92.5179Z" fill="#696D7E" />
            <path opacity="0.75" d="M115.035 89.5219L130.531 98.3779V99.183L115.035 90.327V89.5219Z" fill="#696D7E" />
            <path opacity="0.75" d="M117.083 88.8625L130.531 96.5496V97.3547L117.083 89.6676V88.8625Z" fill="#696D7E" />
            <path opacity="0.75" d="M119.949 88.6734L130.531 94.7212V95.5263L119.949 89.4785V88.6734Z" fill="#696D7E" />
            <path opacity="0.75" d="M114.256 96.3929L130.531 105.695V106.5L114.256 97.198V96.3929Z" fill="#696D7E" />
            <path opacity="0.75" d="M117.083 96.1758L130.531 103.858V104.663L117.083 96.976V96.1758Z" fill="#696D7E" />
            <path opacity="0.75" d="M113.12 82.939L130.531 92.891V93.6961L113.12 83.7441V82.939Z" fill="#696D7E" />
            <path opacity="0.75" d="M117.083 83.3695L130.531 91.0567V91.8618L117.083 84.1746V83.3695Z" fill="#696D7E" />
            <path opacity="0.75" d="M114.256 79.9289L130.531 89.2311V90.0362L114.256 80.734V79.9289Z" fill="#696D7E" />
            <path opacity="0.75" d="M117.083 79.714L130.531 87.4012V88.2062L117.083 80.5191V79.714Z" fill="#696D7E" />
            <path opacity="0.75" d="M119.949 79.5257L130.531 85.5736V86.3787L119.949 80.3308V79.5257Z" fill="#696D7E" />
            <path opacity="0.75" d="M114.256 74.4414L130.531 83.7435V84.5437L114.256 75.2464V74.4414Z" fill="#696D7E" />
            <path opacity="0.75" d="M117.083 72.3968L130.531 80.084V80.8891L117.083 73.2019V72.3968Z" fill="#696D7E" />
            <path opacity="0.75" d="M119.949 72.2062L130.531 78.254V79.0591L119.949 73.0113V72.2062Z" fill="#696D7E" />
            <path opacity="0.75" d="M114.256 67.1242L130.531 76.4263V77.2314L114.256 67.9293V67.1242Z" fill="#696D7E" />
            <path opacity="0.75" d="M117.083 74.2257L130.531 81.9129V82.718L117.083 75.0308V74.2257Z" fill="#696D7E" />
            <path opacity="0.75" d="M119.949 95.9922L130.531 102.035V102.84L119.949 96.7972V95.9922Z" fill="#696D7E" />
            <path opacity="0.75"
                d="M98.5822 100.948C100.572 99.811 100.571 96.1231 98.581 92.7108C96.591 89.2986 93.3652 87.4541 91.3758 88.5912C89.3865 89.7282 89.387 93.4162 91.377 96.8284C93.367 100.241 96.5929 102.085 98.5822 100.948Z"
                fill="#696D7E" />
            <path opacity="0.75"
                d="M92.1005 88.3431C93.1058 88.1917 94.1321 88.4146 94.9811 88.9688C97.7931 90.5789 100.076 94.4929 100.076 97.6987C100.076 100.904 97.7931 102.219 94.9811 100.609C92.1691 98.9985 89.8812 95.0845 89.8812 91.8787L94.9811 94.7887L92.1005 88.3431Z"
                fill="#696D7E" />
            <path opacity="0.75"
                d="M98.58 87.0715C100.569 85.9345 100.569 82.2465 98.5788 78.8343C96.5888 75.422 93.363 73.5775 91.3736 74.7146C89.3843 75.8516 89.3848 79.5396 91.3748 82.9519C93.3648 86.3642 96.5907 88.2086 98.58 87.0715Z"
                fill="#696D7E" />
            <path opacity="0.75"
                d="M99.8114 81.8052C99.9817 82.4597 100.071 83.1324 100.076 83.8082C100.076 87.0238 97.7931 88.3284 94.9811 86.7182C92.1691 85.108 89.8812 81.1941 89.8812 77.9883L94.9811 80.8982L99.8114 81.8052Z"
                fill="#696D7E" />
            <path opacity="0.75"
                d="M98.5822 73.198C100.572 72.061 100.571 68.3731 98.581 64.9608C96.591 61.5485 93.3652 59.7041 91.3758 60.8411C89.3865 61.9782 89.387 65.6661 91.377 69.0784C93.367 72.4907 96.5929 74.3351 98.5822 73.198Z"
                fill="#696D7E" />
            <path opacity="0.75"
                d="M95.6566 61.6023C98.1501 63.4065 100.066 66.9372 100.066 69.9054C100.066 73.1209 97.7828 74.4255 94.9708 72.8154C93.1518 71.6726 91.7175 70.0198 90.8507 68.0673L94.9708 66.9906L95.6566 61.6023Z"
                fill="#696D7E" />
        </g>
    </g>
    <g style="mix-blend-mode:overlay">
        <path d="M35.8066 74.7608L77.7467 50.7875V98.7291L35.8066 122.702V74.7608Z" fill="#CCD0DF" />
    </g>
    <g style="mix-blend-mode:multiply" opacity="0.5">
        <path d="M47.8726 148.034L80.0098 166.406L112.152 148.034L80.0098 129.663L47.8726 148.034Z" fill="#999999" />
    </g>
    <path d="M112.152 85.7996L80.0098 104.171L47.8726 85.7996L80.0098 67.4329L112.152 85.7996Z" fill="#DCE0EF" />
    <path d="M80.0098 140.913V104.17L47.8726 85.7985V122.542L80.0098 140.913Z" fill="#8A8E9E" />
    <path d="M80.0095 140.913V104.17L112.152 85.7985V122.542L80.0095 140.913Z" fill="#383C4D" />
    <g style="mix-blend-mode:overlay">
        <path d="M73.0189 151.209L31.0789 127.235V79.2938L73.0189 103.267V151.209Z" fill="#CCD0DF" />
    </g>
    <g style="mix-blend-mode:overlay">
        <path d="M128.941 127.235L87.001 151.209V103.267L128.941 79.2938V127.235Z" fill="#CCD0DF" />
    </g>
    <path
        d="M72.637 75.4928L15.3339 42.7557C13.4919 41.6984 12.5856 40.2871 12.5856 38.8079C12.5856 37.0231 13.9034 35.1413 16.4753 33.6718L71.4907 2.2248C76.1986 -0.462061 83.3119 -0.757911 87.3879 1.57006L144.706 34.3217C146.553 35.379 147.454 36.7903 147.454 38.2695C147.454 40.0543 146.136 41.9361 143.564 43.4105L88.5489 74.8526C83.8263 77.5298 76.7081 77.8208 72.637 75.4928Z"
        fill="url(#paint5_linear_59_171516)" />
    <path
        d="M143.545 42.2704L88.5296 73.7124C83.8266 76.4041 76.7084 76.6951 72.6373 74.3672L15.3195 41.6156C13.6685 40.6699 12.8112 39.4331 12.6446 38.1237C12.5962 38.3567 12.5716 38.5939 12.5712 38.8318C12.5712 40.311 13.4775 41.7417 15.3195 42.7796L72.6373 75.5311C76.7084 77.8591 83.8266 77.5633 88.5296 74.8764L143.545 43.4295C146.117 41.9745 147.435 40.0782 147.435 38.2934C147.422 38.1401 147.399 37.9879 147.366 37.8375C147.067 39.3992 145.779 40.99 143.545 42.2704Z"
        fill="#DCE0EF" />
    <path opacity="0.8"
        d="M79.7016 63.0126C78.0841 63.0581 76.4818 62.6924 75.0476 61.9505L38.1241 40.8532C36.8455 40.1257 36.1646 39.0927 36.1646 37.9433C36.1646 36.595 37.1443 35.2564 38.8835 34.267L74.3226 14.0136C77.4677 12.2143 82.2491 12.03 84.9827 13.5917L121.891 34.689C123.17 35.4213 123.851 36.4495 123.851 37.5989C123.851 38.9472 122.871 40.2858 121.132 41.2703L85.698 61.5237C83.8597 62.5171 81.7958 63.0295 79.7016 63.0126ZM80.314 13.3686C78.3661 13.3518 76.4459 13.8257 74.7341 14.746L39.2999 35.0042C37.8302 35.8384 37.0023 36.9102 37.0023 37.953C37.0023 38.7823 37.5559 39.5535 38.5602 40.1306L75.4738 61.2279C77.9723 62.6538 82.3765 62.4695 85.2717 60.8059L120.711 40.5525C122.181 39.7184 123.004 38.6417 123.004 37.6038C123.004 36.7744 122.45 35.9984 121.446 35.4261L84.5369 14.3289C83.2343 13.6594 81.7811 13.3289 80.314 13.3686Z"
        fill="url(#paint6_linear_59_171516)" />
    <path
        d="M143.545 43.6439L88.5296 75.0909C83.8266 77.7778 76.7084 78.0688 72.6373 75.7408L15.3195 42.9892C13.4775 41.9367 12.5712 40.5254 12.5712 39.0462V49.9246C12.5712 51.4038 13.4775 52.8346 15.3195 53.8676L72.6373 86.6192C76.7084 88.9472 83.8266 88.6562 88.5296 85.9645L143.545 54.5223C146.117 53.0674 147.435 51.1662 147.435 49.3814V38.5078C147.435 40.312 146.117 42.1744 143.545 43.6439Z"
        fill="url(#paint7_linear_59_171516)" />
    <path
        d="M143.545 53.411L88.5296 84.858C83.8266 87.5449 76.7084 87.8359 72.6373 85.5079L15.3195 52.7563C13.6685 51.8154 12.8112 50.5786 12.6446 49.2691C12.596 49.5021 12.5714 49.7394 12.5712 49.9773C12.5712 51.4565 13.4775 52.8872 15.3195 53.9203L72.6373 86.6719C76.7084 88.9999 83.8266 88.7089 88.5296 86.0172L143.545 54.575C146.117 53.12 147.435 51.2188 147.435 49.4341C147.421 49.2808 147.399 49.1286 147.366 48.9782C147.067 50.5495 145.779 52.1355 143.545 53.411Z"
        fill="#494D5D" />
    <g opacity="0.75">
        <path opacity="0.75" d="M109.776 95.9088L92.3654 105.861V105.056L109.776 95.1037V95.9088Z" fill="#8A8E9E" />
        <path opacity="0.75" d="M105.813 100.003L92.3654 107.69V106.885L105.813 99.1974V100.003Z" fill="#DCE0EF" />
        <path opacity="0.75" d="M108.64 100.216L92.3654 109.518V108.713L108.64 99.4107V100.216Z" fill="#FF9C1A" />
        <path opacity="0.75" d="M105.813 103.661L92.3654 111.348V110.543L105.813 102.861V103.661Z" fill="#DCE0EF" />
        <path opacity="0.75" d="M102.942 107.13L92.3654 113.178V112.373L102.942 106.325V107.13Z" fill="#FF9C1A" />
        <path opacity="0.75" d="M105.813 112.805L92.3654 120.492V119.687L105.813 112V112.805Z" fill="#595D6E" />
        <path opacity="0.75" d="M107.861 113.466L92.3654 122.322V121.517L107.861 112.661V113.466Z" fill="#FF9C1A" />
        <path opacity="0.75" d="M105.813 116.467L92.3654 124.154V123.349L105.813 115.661V116.467Z" fill="#DCE0EF" />
        <path opacity="0.75" d="M102.942 119.936L92.3654 125.984V125.179L102.942 119.131V119.936Z" fill="#595D6E" />
        <path opacity="0.75" d="M108.64 105.706L92.3654 115.008V114.203L108.64 104.901V105.706Z" fill="#8A8E9E" />
        <path opacity="0.75" d="M105.813 109.148L92.3654 116.835V116.03L105.813 108.343V109.148Z" fill="#595D6E" />
        <path opacity="0.75" d="M109.776 117.857L92.3654 127.809V127.004L109.776 117.052V117.857Z" fill="#595D6E" />
        <path opacity="0.75" d="M105.813 121.951L92.3654 129.638V128.833L105.813 121.146V121.951Z" fill="#8A8E9E" />
        <path opacity="0.75" d="M108.64 122.166L92.3654 131.468V130.663L108.64 121.361V122.166Z" fill="#595D6E" />
        <path opacity="0.75" d="M105.813 125.613L92.3654 133.296V132.496L105.813 124.808V125.613Z" fill="#FF9C1A" />
        <path opacity="0.75" d="M102.942 129.081L92.3654 135.129V134.324L102.942 128.276V129.081Z" fill="#DCE0EF" />
        <path opacity="0.75" d="M108.64 127.659L92.3654 136.961V136.156L108.64 126.854V127.659Z" fill="#595D6E" />
        <path opacity="0.75" d="M105.813 132.931L92.3654 140.619V139.814L105.813 132.126V132.931Z" fill="#FF9C1A" />
        <path opacity="0.75" d="M102.942 136.401L92.3654 142.444V141.639L102.942 135.596V136.401Z" fill="#DCE0EF" />
        <path opacity="0.75" d="M108.64 134.976L92.3654 144.273V143.473L108.64 134.171V134.976Z" fill="#8A8E9E" />
        <path opacity="0.75" d="M105.813 131.098L92.3654 138.785V137.98L105.813 130.293V131.098Z" fill="#8A8E9E" />
        <path opacity="0.75" d="M102.942 112.619L92.3654 118.667V117.862L102.942 111.814V112.619Z" fill="#DCE0EF" />
        <path opacity="0.75"
            d="M131.513 97.3928C133.503 93.9806 133.504 90.2926 131.514 89.1556C129.525 88.0186 126.299 89.863 124.309 93.2753C122.319 96.6875 122.319 100.375 124.308 101.512C126.297 102.65 129.523 100.805 131.513 97.3928Z"
            fill="#DCE0EF" />
        <path opacity="0.75"
            d="M130.797 98.5226C130.031 99.5975 129.051 100.505 127.916 101.19C125.104 102.795 122.821 101.491 122.821 98.2801C122.821 95.0695 125.104 91.1507 127.916 89.5503C130.728 87.9498 133.016 89.2447 133.016 92.4602L127.916 95.3702L130.797 98.5226Z"
            fill="#595D6E" />
        <path opacity="0.75"
            d="M131.511 111.265C133.501 107.852 133.502 104.164 131.512 103.027C129.523 101.89 126.297 103.735 124.307 107.147C122.317 110.559 122.317 114.247 124.306 115.384C126.295 116.521 129.521 114.677 131.511 111.265Z"
            fill="#DCE0EF" />
        <path opacity="0.75"
            d="M123.084 113.83C122.9 113.282 122.811 112.706 122.82 112.128C122.82 108.908 125.103 104.998 127.915 103.398C130.727 101.797 133.014 103.092 133.014 106.308L127.915 109.218L123.084 113.83Z"
            fill="#595D6E" />
        <path opacity="0.75"
            d="M131.517 125.144C133.507 121.731 133.507 118.043 131.518 116.906C129.528 115.769 126.303 117.614 124.313 121.026C122.323 124.438 122.322 128.126 124.311 129.263C126.301 130.4 129.527 128.556 131.517 125.144Z"
            fill="#DCE0EF" />
        <path opacity="0.75"
            d="M127.254 129.276C124.76 130.324 122.844 128.98 122.844 126.027C122.844 122.811 125.127 118.897 127.939 117.297C129.634 116.327 131.134 116.414 132.059 117.335L127.939 123.121L127.254 129.276Z"
            fill="#595D6E" />
    </g>
    <g opacity="0.75">
        <path opacity="0.75" d="M52.8861 97.7918L35.4752 87.8398V87.0347L52.8861 96.9867V97.7918Z" fill="#8A8E9E" />
        <path opacity="0.75" d="M48.9228 97.3269L35.4752 89.6398V88.8347L48.9228 96.5219V97.3269Z" fill="#DCE0EF" />
        <path opacity="0.75" d="M51.7495 100.82L35.4752 91.5179V90.7128L51.7495 100.015V100.82Z" fill="#FF9C1A" />
        <path opacity="0.75" d="M48.9228 101.006L35.4752 93.3187V92.5136L48.9228 100.201V101.006Z" fill="#DCE0EF" />
        <path opacity="0.75" d="M46.052 101.167L35.4752 95.1187V94.3136L46.052 100.361V101.167Z" fill="#FF9C1A" />
        <path opacity="0.75" d="M48.9228 110.167L35.4752 102.48V101.675L48.9228 109.362V110.167Z" fill="#595D6E" />
        <path opacity="0.75" d="M50.9706 113.141L35.4752 104.28V103.475L50.9706 112.331V113.141Z" fill="#FF9C1A" />
        <path opacity="0.75" d="M48.9228 113.843L35.4752 106.156V105.356L48.9228 113.038V113.843Z" fill="#DCE0EF" />
        <path opacity="0.75" d="M46.052 114.004L35.4752 107.961V107.156L46.052 113.199V114.004Z" fill="#595D6E" />
        <path opacity="0.75" d="M51.7495 106.297L35.4752 97V96.1949L51.7495 105.492V106.297Z" fill="#8A8E9E" />
        <path opacity="0.75" d="M48.9228 106.488L35.4752 98.8008V97.9957L48.9228 105.683V106.488Z" fill="#595D6E" />
        <path opacity="0.75" d="M52.8861 119.713L35.4752 109.761V108.956L52.8861 118.908V119.713Z" fill="#595D6E" />
        <path opacity="0.75" d="M48.9228 119.326L35.4752 111.639V110.834L48.9228 118.521V119.326Z" fill="#8A8E9E" />
        <path opacity="0.75" d="M51.7495 122.742L35.4752 113.44V112.635L51.7495 121.937V122.742Z" fill="#595D6E" />
        <path opacity="0.75" d="M48.9228 122.927L35.4752 115.24V114.435L48.9228 122.122V122.927Z" fill="#FF9C1A" />
        <path opacity="0.75" d="M46.052 123.164L35.4752 117.116V116.316L46.052 122.359V123.164Z" fill="#DCE0EF" />
        <path opacity="0.75" d="M51.7495 128.224L35.4752 118.922V118.117L51.7495 127.419V128.224Z" fill="#595D6E" />
        <path opacity="0.75" d="M48.9228 130.287L35.4752 122.6V121.795L48.9228 129.482V130.287Z" fill="#FF9C1A" />
        <path opacity="0.75" d="M46.052 130.449L35.4752 124.401V123.596L46.052 129.644V130.449Z" fill="#DCE0EF" />
        <path opacity="0.75" d="M51.7495 135.581L35.4752 126.279V125.474L51.7495 134.776V135.581Z" fill="#8A8E9E" />
        <path opacity="0.75" d="M48.9228 128.487L35.4752 120.8V119.995L48.9228 127.682V128.487Z" fill="#8A8E9E" />
        <path opacity="0.75" d="M46.052 106.727L35.4752 100.679V99.8738L46.052 105.922V106.727Z" fill="#DCE0EF" />
        <path opacity="0.75"
            d="M65.8405 114.109C67.8298 112.972 67.8293 109.284 65.8393 105.871C63.8493 102.459 60.6235 100.615 58.6341 101.752C56.6448 102.889 56.6454 106.577 58.6353 109.989C60.6253 113.401 63.8512 115.246 65.8405 114.109Z"
            fill="#DCE0EF" />
        <path opacity="0.75"
            d="M65.1195 114.395C64.1142 114.547 63.0879 114.324 62.2389 113.77C59.4269 112.16 57.144 108.246 57.144 105.04C57.144 101.834 59.4269 100.52 62.2389 102.13C65.0509 103.74 67.3388 107.654 67.3388 110.86L62.2389 107.95L65.1195 114.395Z"
            fill="#595D6E" />
        <path opacity="0.75"
            d="M65.8405 127.978C67.8298 126.841 67.8293 123.153 65.8393 119.741C63.8493 116.329 60.6235 114.484 58.6341 115.621C56.6448 116.758 56.6454 120.446 58.6354 123.858C60.6253 127.271 63.8512 129.115 65.8405 127.978Z"
            fill="#DCE0EF" />
        <path opacity="0.75"
            d="M57.4085 120.911C57.2386 120.257 57.1497 119.584 57.144 118.908C57.144 115.688 59.4269 114.388 62.2389 115.998C65.0509 117.608 67.3388 121.522 67.3388 124.728L62.2389 121.818L57.4085 120.911Z"
            fill="#595D6E" />
        <path opacity="0.75"
            d="M65.8372 141.851C67.8265 140.714 67.826 137.026 65.836 133.614C63.846 130.201 60.6201 128.357 58.6308 129.494C56.6415 130.631 56.642 134.319 58.632 137.731C60.622 141.143 63.8479 142.988 65.8372 141.851Z"
            fill="#DCE0EF" />
        <path opacity="0.75"
            d="M61.563 141.094C59.0694 139.29 57.1539 135.759 57.1539 132.796C57.1539 129.58 59.4369 128.275 62.2489 129.886C64.0657 131.031 65.4993 132.683 66.3689 134.634L62.2489 135.715L61.563 141.094Z"
            fill="#595D6E" />
    </g>
    <defs>
        <radialGradient id="paint0_radial_59_171516" cx="0" cy="0" r="1" gradientUnits="userSpaceOnUse" gradientTransform="translate(80.0106 153.969) scale(54.986 54.4357)">
            <stop stop-color="#282C3D" />
            <stop offset="0.99" stop-color="#595D6E" />
        </radialGradient>
        <linearGradient id="paint1_linear_59_171516" x1="72.7986" y1="108.918" x2="86.9408" y2="199.122" gradientUnits="userSpaceOnUse">
            <stop stop-color="#F4AD33" />
            <stop offset="0.7" stop-color="#F69124" />
            <stop offset="1" stop-color="#F7831D" />
        </linearGradient>
        <linearGradient id="paint2_linear_59_171516" x1="147.66" y1="129.458" x2="-31.7885" y2="129.458" gradientUnits="userSpaceOnUse">
            <stop offset="0.01" stop-color="#696D7E" />
            <stop offset="1" stop-color="#282C3D" />
        </linearGradient>
        <linearGradient id="paint3_linear_59_171516" x1="129027" y1="34009.2" x2="178594" y2="34009.2" gradientUnits="userSpaceOnUse">
            <stop offset="0.01" stop-color="#696D7E" />
            <stop offset="1" stop-color="#282C3D" />
        </linearGradient>
        <linearGradient id="paint4_linear_59_171516" x1="3.26124" y1="138.184" x2="231.892" y2="152.696" gradientUnits="userSpaceOnUse">
            <stop stop-color="#DCE0EF" />
            <stop offset="0.35" stop-color="#C0C4D3" />
            <stop offset="0.58" stop-color="#ABAFBE" />
            <stop offset="1" stop-color="#494D5D" />
        </linearGradient>
        <linearGradient id="paint5_linear_59_171516" x1="-10.9833" y1="26.3969" x2="125.991" y2="45.0262" gradientUnits="userSpaceOnUse">
            <stop offset="0.01" stop-color="#595D6E" />
            <stop offset="1" stop-color="#282C3D" />
        </linearGradient>
        <linearGradient id="paint6_linear_59_171516" x1="87896.3" y1="20801" x2="103596" y2="20801" gradientUnits="userSpaceOnUse">
            <stop stop-color="#F4AD33" />
            <stop offset="0.7" stop-color="#F69124" />
            <stop offset="1" stop-color="#F7831D" />
        </linearGradient>
        <linearGradient id="paint7_linear_59_171516" x1="128655" y1="23116.3" x2="177891" y2="23116.3" gradientUnits="userSpaceOnUse">
            <stop offset="0.01" stop-color="#696D7E" />
            <stop offset="1" stop-color="#282C3D" />
        </linearGradient>
    </defs>
</svg>